# Blender 3.6.0
# www.blender.org
mtllib Hiace.mtl
o _gltfNode_0
v 72.793312 67.053764 211.394775
v 73.855820 57.930817 201.947769
v 74.101013 66.635277 201.554153
v 74.754868 76.092995 171.638672
v 74.019287 89.902946 200.176468
v 72.956779 90.823616 206.277649
v 71.812538 99.528084 200.963699
v 73.447166 97.435661 197.617889
v 69.605789 113.086937 186.596390
v 71.076958 111.245613 184.234650
v 64.293251 135.852417 159.239471
v 66.091347 133.257812 155.303223
v 60.124958 151.252594 135.228348
v 62.822090 149.076508 130.701675
v 58.245136 156.525513 123.025986
v 61.269196 153.763519 112.398117
v 56.528778 161.212524 103.935181
v 59.961491 153.010254 74.216515
v 55.711464 163.137543 71.657951
v 61.187466 154.098267 -32.258995
v 55.711464 163.304901 -31.668558
v 55.956657 162.384247 -115.707458
v 61.105732 154.265656 -117.281960
v 55.548000 162.635345 -131.058823
v 61.024002 154.433044 -131.846069
v 54.975880 162.384247 -139.324951
v 60.124958 154.349365 -142.277130
v 69.442329 122.712013 -139.915375
v 67.725967 124.385948 -149.952820
v 74.101013 92.330116 -146.803802
v 72.711578 92.748604 -154.085861
v 70.341370 41.693604 -157.234848
v 74.182747 40.354462 -151.527298
v 68.134628 21.020523 -157.825287
v 70.913490 21.104225 -150.936859
v 74.182747 38.513138 -135.585495
v 71.076958 20.434662 -137.159988
v 74.019287 36.420723 -113.148872
v 70.750031 18.174850 -112.755249
v 74.019287 36.085930 -109.606247
v 74.673134 51.653519 -102.717819
v 74.754868 48.054565 -101.143326
v 75.163521 58.516663 -84.807892
v 75.326981 55.336189 -85.004700
v 74.101013 91.325752 -120.627754
v 73.528893 97.017128 -81.462082
v 73.283699 99.109566 -31.471739
v 73.447166 98.272621 83.073074
v 74.918327 80.696281 -27.732298
v 75.000061 54.164429 -63.552151
v 75.081795 51.904617 -66.504333
v 73.855820 36.922905 -50.168907
v 73.855820 36.671822 -53.121094
v 70.668297 17.923767 -50.168903
v 70.750031 18.007462 -28.913166
v 74.264473 38.680550 -26.157793
v 70.750031 18.007484 99.014885
v 74.182747 36.671844 100.392570
v 73.855820 33.658768 118.105690
v 70.831764 18.007484 119.483376
v 73.855820 33.240280 120.664261
v 74.673134 47.803505 125.190941
v 74.591400 46.548058 127.552689
v 74.918327 77.934319 90.355141
v 74.754868 76.929955 136.409256
v 75.000061 56.089478 110.626823
v 75.000061 57.512321 141.723175
v 75.081795 55.252518 142.313614
v 75.081795 57.344933 160.420349
v 75.163521 55.503601 159.436295
v 73.855820 92.832329 168.686493
v 74.509674 46.129585 174.984482
v 74.591400 45.125221 172.622726
v 73.283699 30.310905 180.888855
v 73.283699 30.310905 179.314346
v 71.975998 20.183601 180.101593
v 72.466385 22.359726 203.719070
v 73.201965 29.976120 203.915894
v 70.504837 22.778214 219.267258
v 71.567345 28.051102 220.054504
v 73.528893 57.428642 211.591583
v 73.283699 56.842766 220.054504
v -63.125896 67.053764 211.394775
v -64.433594 66.635277 201.554153
v -64.188400 57.930817 201.947769
v -65.087448 76.092995 171.638672
v -64.842255 45.878487 174.394043
v -63.289356 90.823616 206.277649
v -64.351868 89.902946 200.176468
v -62.145119 99.528084 200.963699
v -63.779743 97.435661 197.617889
v -59.938374 113.086937 186.596390
v -61.409534 111.245613 184.234650
v -54.625835 135.852417 159.239471
v -56.423923 133.257812 155.303223
v -50.457539 151.252594 135.228348
v -53.154675 149.076508 130.701675
v -48.577717 156.525513 123.025986
v -51.601776 153.763519 112.398117
v -46.861359 161.212524 103.935181
v -50.294075 153.010254 74.216515
v -46.044044 163.137543 71.657951
v -51.520046 154.098267 -32.258995
v -46.044044 163.304901 -31.668558
v -46.289238 162.384247 -115.707458
v -51.438313 154.265656 -117.281960
v -45.880581 162.635345 -131.058823
v -51.356583 154.433044 -131.846069
v -45.308464 162.384247 -139.324951
v -50.457539 154.349365 -142.277130
v -59.774906 122.712013 -139.915375
v -58.058552 124.385948 -149.952820
v -64.433594 92.330116 -146.803802
v -63.044163 92.748604 -154.085861
v -60.673950 41.693604 -157.234848
v -64.515327 40.354462 -151.527298
v -58.467209 21.020523 -157.825287
v -61.246071 21.104225 -150.936859
v -64.515327 38.513138 -135.585495
v -61.409534 20.434662 -137.159988
v -64.351868 36.337029 -112.755249
v -61.082611 18.174850 -112.755249
v -64.351868 36.085930 -109.606247
v -65.087448 48.054565 -101.143326
v -65.087448 50.816551 -102.324196
v -65.659561 55.336189 -85.004700
v -65.496101 58.098175 -84.807892
v -65.414375 51.904617 -66.504333
v -64.433594 91.325752 -120.627754
v -63.861477 97.017128 -81.462082
v -65.332642 53.829636 -63.945778
v -64.188400 36.839218 -50.562534
v -64.188400 36.671822 -53.121094
v -61.000881 17.923767 -50.168903
v -64.597054 38.680550 -26.157793
v -61.082611 18.007462 -28.913166
v -61.082611 18.007484 99.014885
v -64.515327 36.671844 100.392570
v -64.270134 33.826164 116.924820
v -65.087448 48.640472 123.813255
v -64.188400 33.240280 120.664261
v -64.923988 46.548058 127.552689
v -65.332642 57.763405 141.723175
v -65.414375 55.252518 142.313614
v -65.496101 55.503601 159.436295
v -65.414375 57.679726 160.617172
v -64.923988 45.125221 172.622726
v -63.616283 30.310905 180.888855
v -63.616283 30.310905 179.314346
v -62.308578 20.183601 180.101593
v -63.534550 29.976120 203.915894
v -62.798965 22.359726 203.719070
v -60.837414 22.778214 219.267258
v -61.899925 28.051102 220.054504
v -63.861477 57.428642 211.591583
v -63.616283 56.842766 220.054504
v -61.164345 18.007484 119.483376
v -65.087448 76.929955 136.409256
v -65.332642 56.089478 110.626823
v -65.250908 77.934319 90.355141
v -65.250908 80.696281 -27.732298
v -63.616283 99.109566 -31.471739
v -63.779743 98.272621 83.073074
v -64.188400 92.832329 168.686493
v 55.711464 21.857529 122.041946
v 55.711464 21.857536 148.217987
v 55.711464 30.143501 123.419632
v 55.711464 37.341415 127.159058
v 55.711464 43.032799 132.866623
v 55.711464 46.715446 139.951859
v 55.711464 48.054604 148.217987
v 55.711464 46.715454 156.680923
v 55.711464 43.032806 163.766174
v 55.711464 37.341423 169.473724
v 55.711464 30.143509 173.213165
v 55.711464 21.857536 174.590851
v 55.711464 13.571571 173.213165
v 55.711464 6.373650 169.473724
v 55.711464 0.682274 163.766174
v 55.711464 -3.000374 156.680923
v 55.711464 -4.339527 148.217987
v 55.711464 -3.000381 139.951859
v 55.711464 0.682266 132.866623
v 55.711464 6.373642 127.159065
v 55.711464 13.571564 123.419640
v 74.346207 30.143501 123.419632
v 74.346207 21.857536 148.217987
v 74.346207 21.857529 122.041946
v 74.346207 13.571564 123.419640
v 74.346207 6.373642 127.159065
v 74.346207 0.682266 132.866623
v 74.346207 -3.000381 139.951859
v 74.346207 -4.339527 148.217987
v 74.346207 -3.000374 156.680923
v 74.346207 0.682274 163.766174
v 74.346207 37.341415 127.159058
v 74.346207 43.032799 132.866623
v 74.346207 46.715446 139.951859
v 74.346207 48.054604 148.217987
v 74.346207 46.715454 156.680923
v 74.346207 43.032806 163.766174
v 74.346207 37.341423 169.473724
v 74.346207 30.143509 173.213165
v 74.346207 21.857536 174.590851
v 74.346207 13.571571 173.213165
v 74.346207 6.373650 169.473724
v -46.044044 21.857529 122.041946
v -46.044044 21.857536 148.217987
v -46.044044 30.143501 123.419632
v -46.044044 37.341415 127.159058
v -46.044044 43.032799 132.866623
v -46.044044 46.715446 139.951859
v -46.044044 48.054604 148.217987
v -46.044044 46.715454 156.680923
v -46.044044 43.032806 163.766174
v -46.044044 37.341423 169.473724
v -46.044044 30.143509 173.213165
v -46.044044 21.857536 174.590851
v -46.044044 13.571571 173.213165
v -46.044044 6.373650 169.473724
v -46.044044 0.682274 163.766174
v -46.044044 -3.000374 156.680923
v -46.044044 -4.339527 148.217987
v -46.044044 -3.000381 139.951859
v -46.044044 0.682266 132.866623
v -46.044044 6.373642 127.159065
v -46.044044 13.571564 123.419640
v -64.678787 21.857529 122.041946
v -64.678787 30.143501 123.419632
v -64.678787 21.857536 148.217987
v -64.678787 37.341415 127.159058
v -64.678787 43.032799 132.866623
v -64.678787 46.715446 139.951859
v -64.678787 48.054604 148.217987
v -64.678787 46.715454 156.680923
v -64.678787 43.032806 163.766174
v -64.678787 37.341423 169.473724
v -64.678787 13.571564 123.419640
v -64.678787 6.373642 127.159065
v -64.678787 0.682266 132.866623
v -64.678787 -3.000381 139.951859
v -64.678787 -4.339527 148.217987
v -64.678787 -3.000374 156.680923
v -64.678787 0.682274 163.766174
v -64.678787 6.373650 169.473724
v -64.678787 13.571571 173.213165
v -64.678787 21.857536 174.590851
v -64.678787 30.143509 173.213165
v 55.711464 21.857498 -107.638130
v 55.711464 30.143471 -106.260445
v 55.711464 21.857506 -81.462074
v 55.711464 37.341385 -102.521011
v 55.711464 43.032768 -96.813446
v 55.711464 46.715416 -89.728203
v 55.711464 48.054573 -81.462074
v 55.711464 46.715424 -73.195961
v 55.711464 43.032776 -65.913902
v 55.711464 37.341393 -60.206341
v 55.711464 30.143478 -56.466900
v 55.711464 21.857506 -55.286030
v 55.711464 13.571541 -56.466900
v 55.711464 6.373619 -60.206337
v 55.711464 0.682243 -65.913895
v 55.711464 -3.000404 -73.195953
v 55.711464 -4.339558 -81.462067
v 55.711464 -3.000412 -89.728195
v 55.711464 0.682236 -96.813438
v 55.711464 6.373611 -102.521004
v 55.711464 13.571533 -106.260437
v 74.346207 30.143471 -106.260445
v 74.346207 21.857506 -81.462074
v 74.346207 21.857498 -107.638130
v 74.346207 13.571533 -106.260437
v 74.346207 6.373611 -102.521004
v 74.346207 0.682236 -96.813438
v 74.346207 -3.000412 -89.728195
v 74.346207 -4.339558 -81.462067
v 74.346207 -3.000404 -73.195953
v 74.346207 0.682243 -65.913895
v 74.346207 37.341385 -102.521011
v 74.346207 43.032768 -96.813446
v 74.346207 46.715416 -89.728203
v 74.346207 48.054573 -81.462074
v 74.346207 46.715424 -73.195961
v 74.346207 43.032776 -65.913902
v 74.346207 37.341393 -60.206341
v 74.346207 30.143478 -56.466900
v 74.346207 21.857506 -55.286030
v 74.346207 13.571541 -56.466900
v 74.346207 6.373619 -60.206337
v -46.044044 21.857498 -107.638130
v -46.044044 21.857506 -81.462074
v -46.044044 30.143471 -106.260445
v -46.044044 37.341385 -102.521011
v -46.044044 43.032768 -96.813446
v -46.044044 46.715416 -89.728203
v -46.044044 48.054573 -81.462074
v -46.044044 46.715424 -73.195961
v -46.044044 43.032776 -65.913902
v -46.044044 37.341393 -60.206341
v -46.044044 30.143478 -56.466900
v -46.044044 21.857506 -55.286030
v -46.044044 13.571541 -56.466900
v -46.044044 6.373619 -60.206337
v -46.044044 0.682243 -65.913895
v -46.044044 -3.000404 -73.195953
v -46.044044 -4.339558 -81.462067
v -46.044044 -3.000412 -89.728195
v -46.044044 0.682236 -96.813438
v -46.044044 6.373611 -102.521004
v -46.044044 13.571533 -106.260437
v -64.678787 21.857498 -107.638130
v -64.678787 30.143471 -106.260445
v -64.678787 21.857506 -81.462074
v -64.678787 37.341385 -102.521011
v -64.678787 43.032768 -96.813446
v -64.678787 46.715416 -89.728203
v -64.678787 48.054573 -81.462074
v -64.678787 46.715424 -73.195961
v -64.678787 43.032776 -65.913902
v -64.678787 37.341393 -60.206341
v -64.678787 13.571533 -106.260437
v -64.678787 6.373611 -102.521004
v -64.678787 0.682236 -96.813438
v -64.678787 -3.000412 -89.728195
v -64.678787 -4.339558 -81.462067
v -64.678787 -3.000404 -73.195953
v -64.678787 0.682243 -65.913895
v -64.678787 6.373619 -60.206337
v -64.678787 13.571541 -56.466900
v -64.678787 21.857506 -55.286030
v -64.678787 30.143478 -56.466900
v 71.812538 99.528084 200.963699
v 72.956779 90.823616 206.277649
v 68.706741 99.946571 203.128662
v 69.033676 91.576881 210.410706
v 60.615345 100.030251 207.261703
v 60.533611 99.862846 203.915894
v 59.471104 113.505424 188.564514
v 69.605789 113.086937 186.596390
v 57.182629 136.103516 161.010788
v 64.293251 135.852417 159.239471
v 53.177792 150.248260 139.951843
v 60.124958 151.252594 135.228348
v 52.033554 157.864655 123.025986
v 58.245136 156.525513 123.025986
v 56.528778 161.212524 103.935181
v 50.235466 162.551666 105.706497
v 4.874576 163.388611 107.674622
v 4.874576 157.864655 126.371796
v -42.366135 157.864655 123.025986
v -40.568047 162.551666 105.706497
v -46.861359 161.212524 103.935181
v -48.577717 156.525513 123.025986
v -50.457539 151.252594 135.228348
v -43.510376 150.248260 139.951843
v -54.625835 135.852417 159.239471
v -47.515209 136.103516 161.010788
v -59.938374 113.086937 186.596390
v -49.803684 113.505424 188.564514
v -59.039330 99.946571 203.128662
v -62.145119 99.528084 200.963699
v -63.289356 90.823616 206.277649
v -59.366253 91.576881 210.410706
v -63.125896 67.053764 211.394775
v -59.202793 67.137459 216.708694
v -58.058552 58.014511 216.905518
v -63.861477 57.428642 211.591583
v -63.616283 56.842766 220.054504
v -60.020103 56.842766 223.793945
v -61.899925 28.051102 220.054504
v -54.871029 28.302193 226.549316
v -60.837414 22.778214 219.267258
v -52.664280 22.359726 226.549316
v -44.327686 22.527122 230.288757
v -49.395031 34.997925 229.304688
v -40.241119 34.244659 234.225006
v -23.241003 22.527122 235.209061
v -23.813122 34.160957 237.374008
v 4.874576 34.412048 238.554871
v 4.874576 22.192329 236.389938
v 32.908421 22.527122 235.209061
v 33.480541 34.160957 237.374008
v 49.908543 34.244659 234.225006
v 53.995106 22.527122 230.288757
v 59.062450 34.997925 229.304688
v 64.538452 28.302193 226.549316
v 62.331703 22.359726 226.549316
v 70.504837 22.778214 219.267258
v 71.567345 28.051102 220.054504
v 69.687523 56.842766 223.793945
v 73.283699 56.842766 220.054504
v 67.725967 58.014511 216.905518
v 73.528893 57.428642 211.591583
v 72.793312 67.053764 211.394775
v 68.870209 67.137459 216.708694
v 61.514389 92.330162 214.740585
v 63.394211 56.507973 228.123825
v 50.398930 56.005798 233.831390
v 38.956539 56.173195 235.799500
v 4.874576 56.089493 237.570831
v -29.289124 56.173195 235.799500
v -40.731506 56.005798 233.831390
v -53.726788 56.507973 228.123825
v -51.683510 57.512337 221.038574
v 61.923042 67.388542 221.235397
v 61.350929 57.512337 221.038574
v -38.443031 57.428642 226.155701
v -32.476643 66.718971 229.895126
v 4.874576 66.970055 231.469635
v 42.144062 66.718971 229.895126
v 48.110451 57.428642 226.155701
v 45.331585 66.802666 227.533386
v 53.014328 81.198494 222.613068
v 39.773853 80.696312 225.762070
v 36.749794 91.911674 221.629013
v 34.788242 100.030251 213.362885
v 34.052662 98.942192 207.261703
v 4.874576 114.342384 191.713516
v 4.874576 136.773102 162.191666
v 4.874576 150.331940 142.116791
v -24.385242 98.942192 207.261703
v -50.866192 99.862846 203.915894
v -50.947926 100.030251 207.261703
v -51.846970 92.330162 214.740585
v -52.255627 67.388542 221.235397
v -35.664165 66.802666 227.533386
v -43.346912 81.198494 222.613068
v -27.082375 91.911674 221.629013
v -25.120823 100.030251 213.362885
v -30.106434 80.696312 225.762070
v 4.874576 81.868080 227.927017
v 4.874576 92.079063 223.793945
v 4.874576 100.113945 215.331024
v 4.874576 99.528084 209.820267
v 4.874576 113.254326 193.091202
v 75.326981 55.336189 -85.004700
v 41.245018 55.336189 -85.004700
v 75.081795 51.904617 -66.504333
v 41.245018 51.904617 -66.504333
v 41.245018 48.054565 -101.143326
v 41.245018 36.085930 -109.606247
v 74.019287 36.085930 -109.606247
v 70.750031 18.174850 -112.755249
v 74.754868 48.054565 -101.143326
v 73.855820 36.671822 -53.121094
v 41.245018 36.671822 -53.121094
v 70.668297 17.923767 -50.168903
v 44.269077 17.672668 -50.168903
v 70.750031 18.007462 -28.913166
v 41.245018 17.756363 -113.542496
v 49.336422 19.932472 -138.931305
v 71.076958 20.434662 -137.159988
v 70.913490 21.104225 -150.936859
v 59.798031 22.275970 -160.580658
v 68.134628 21.020523 -157.825287
v 4.874576 21.773796 -163.926483
v 4.874576 21.690102 -162.745590
v 4.874576 18.174850 -118.265999
v 4.874576 17.672668 -53.711529
v 4.874576 17.756393 112.988571
v 42.389259 17.756393 118.696136
v 70.750031 18.007484 99.014885
v 70.831764 18.007484 119.483376
v 44.596004 33.240280 120.664261
v 73.855820 33.240280 120.664261
v 44.596004 46.548058 127.552689
v 74.591400 46.548058 127.552689
v 44.596004 55.252518 142.313614
v 75.081795 55.252518 142.313614
v 75.163521 55.503601 159.436295
v 44.596004 55.503601 159.436295
v 74.591400 45.125221 172.622726
v 44.596004 45.125221 172.622726
v 73.283699 30.310905 179.314346
v 44.596004 30.310905 179.314346
v 71.975998 20.183601 180.101593
v 43.860424 19.765121 181.085663
v 4.874576 19.765121 182.266525
v 47.374870 21.606453 199.586029
v 4.874576 19.848824 183.250595
v 72.466385 22.359726 203.719070
v 70.504837 22.778214 219.267258
v 62.331703 22.359726 226.549316
v 53.995106 22.527122 230.288757
v 32.908421 22.527122 235.209061
v 4.874576 22.192329 236.389938
v -37.707447 21.606453 199.586029
v -23.241003 22.527122 235.209061
v -44.327686 22.527122 230.288757
v -52.664280 22.359726 226.549316
v -60.837414 22.778214 219.267258
v -62.798965 22.359726 203.719070
v -62.308578 20.183601 180.101593
v -34.193005 19.765121 181.085663
v -32.721836 17.756393 118.696136
v -34.601658 17.672668 -50.168903
v -31.577599 17.756363 -113.542496
v -39.668999 19.932472 -138.931305
v -50.130608 22.275970 -160.580658
v -61.246071 21.104225 -150.936859
v -58.467209 21.020523 -157.825287
v -61.409534 20.434662 -137.159988
v -61.082611 18.174850 -112.755249
v -31.577599 36.085930 -109.606247
v -64.351868 36.085930 -109.606247
v -31.577599 48.054565 -101.143326
v -65.087448 48.054565 -101.143326
v -31.577599 55.336189 -85.004700
v -65.659561 55.336189 -85.004700
v -65.414375 51.904617 -66.504333
v -31.577599 51.904617 -66.504333
v -64.188400 36.671822 -53.121094
v -31.577599 36.671822 -53.121094
v -61.000881 17.923767 -50.168903
v -61.082611 18.007462 -28.913166
v -61.082611 18.007484 99.014885
v -61.164345 18.007484 119.483376
v -34.928581 33.240280 120.664261
v -64.188400 33.240280 120.664261
v -34.928581 46.548058 127.552689
v -64.923988 46.548058 127.552689
v -34.928581 55.252518 142.313614
v -65.414375 55.252518 142.313614
v -65.496101 55.503601 159.436295
v -34.928581 55.503601 159.436295
v -64.923988 45.125221 172.622726
v -34.928581 45.125221 172.622726
v -34.928581 30.310905 179.314346
v -63.616283 30.310905 179.314346
v 77.288536 109.153206 182.266510
v 81.456833 109.990166 182.463333
v 77.043343 106.558586 182.660141
v 78.841431 102.792244 183.841034
v 81.865486 102.792244 183.447418
v 79.985672 98.272636 183.053787
v 78.351044 111.496696 181.479263
v 80.476059 112.333656 181.085648
v 84.235703 112.333656 179.707962
v 85.543404 110.073860 180.888840
v 86.932831 111.245613 178.920700
v 88.077072 109.404274 178.133469
v 87.178024 105.554237 180.495209
v 86.932831 102.038979 180.692047
v 86.360718 98.523705 180.101593
v 88.158806 99.193291 178.527084
v 85.952057 97.686745 176.165344
v 87.178024 99.109596 175.771713
v 87.504959 101.536781 175.574905
v 88.485733 101.704185 178.330276
v 88.485733 106.223824 178.133469
v 87.504959 106.893379 175.574890
v 87.014565 109.906456 175.771698
v 79.168358 96.514992 178.723907
v 76.144302 96.431297 180.101593
v 77.125076 97.603050 183.841034
v 72.875046 96.347603 181.676086
v 73.365433 96.682396 184.825089
v 76.798149 100.616127 184.431473
v 72.875046 100.113945 186.399597
v 75.163521 101.453087 183.250595
v 71.567345 100.867226 183.841034
v 76.307762 103.378120 182.660141
v -77.265411 102.038979 180.692047
v -72.198074 102.792244 183.447418
v -76.693298 98.523705 180.101593
v -70.318253 98.272636 183.053787
v -69.174011 102.792244 183.841034
v -71.789413 109.990166 182.463333
v -77.510605 105.554237 180.495209
v -78.818314 101.704185 178.330276
v -78.491386 99.193291 178.527084
v -76.284637 97.686745 176.165344
v -69.500938 96.514992 178.723907
v -66.476875 96.431297 180.101593
v -67.457649 97.603050 183.841034
v -63.207623 96.347603 181.676086
v -63.698009 96.682396 184.825089
v -67.130730 100.616127 184.431473
v -66.640343 103.378120 182.660141
v -67.375923 106.558586 182.660141
v -67.621117 109.153206 182.266510
v -68.683624 111.496696 181.479263
v -70.808640 112.333656 181.085648
v -74.568283 112.333656 179.707962
v -75.875984 110.073860 180.888840
v -77.265411 111.245613 178.920700
v -78.409653 109.404274 178.133469
v -78.818314 106.223824 178.133469
v -77.837532 101.536781 175.574905
v -77.510605 99.109596 175.771713
v -77.347145 109.906456 175.771698
v -77.837532 106.893379 175.574890
v 88.077072 109.404274 178.133469
v 87.014565 109.906456 175.771698
v 86.932831 111.245613 178.920700
v 85.625137 111.580391 176.165329
v 84.235703 112.333656 179.707962
v 83.091461 112.333656 177.149399
v 80.476059 112.333656 181.085648
v 79.495285 112.166283 178.527069
v 78.351044 111.496696 181.479263
v 77.451996 111.329308 179.117523
v 76.471222 109.487968 179.511139
v 77.288536 109.153206 182.266510
v 76.062569 107.479271 179.707962
v 77.043343 106.558586 182.660141
v 75.653915 104.549889 180.298401
v 76.307762 103.378120 182.660141
v 74.918327 101.620491 180.495224
v 75.163521 101.453087 183.250595
v 71.485611 101.118309 181.872910
v 71.567345 100.867226 183.841034
v -78.409653 109.404274 178.133469
v -77.347145 109.906456 175.771698
v -77.265411 111.245613 178.920700
v -75.957718 111.580391 176.165329
v -74.568283 112.333656 179.707962
v -73.424042 112.333656 177.149399
v -70.808640 112.333656 181.085648
v -69.827866 112.166283 178.527069
v -68.683624 111.496696 181.479263
v -67.784584 111.329308 179.117523
v -66.803802 109.487968 179.511139
v -67.621117 109.153206 182.266510
v -66.395149 107.479271 179.707962
v -67.375923 106.558586 182.660141
v -65.986496 104.549889 180.298401
v -66.640343 103.378120 182.660141
v -65.250908 101.620491 180.495224
v -65.496101 101.453087 183.250595
v -61.818192 101.118309 181.872910
v -61.899925 100.867226 183.841034
v -63.207623 100.113945 186.399597
v -65.496101 101.453087 183.250595
v -61.899925 100.867226 183.841034
v 74.346207 21.857529 122.041946
v 55.711464 30.143501 123.419632
v 74.346207 30.143501 123.419632
v 55.711464 37.341415 127.159058
v 74.346207 37.341415 127.159058
v 55.711464 43.032799 132.866623
v 74.346207 43.032799 132.866623
v 55.711464 46.715446 139.951859
v 74.346207 46.715446 139.951859
v 55.711464 48.054604 148.217987
v 74.346207 48.054604 148.217987
v 55.711464 46.715454 156.680923
v 74.346207 46.715454 156.680923
v 55.711464 43.032806 163.766174
v 74.346207 43.032806 163.766174
v 55.711464 37.341423 169.473724
v 74.346207 37.341423 169.473724
v 55.711464 30.143509 173.213165
v 74.346207 30.143509 173.213165
v 55.711464 21.857536 174.590851
v 74.346207 21.857536 174.590851
v 55.711464 13.571571 173.213165
v 74.346207 13.571571 173.213165
v 55.711464 6.373650 169.473724
v 74.346207 6.373650 169.473724
v 55.711464 21.857529 122.041946
v 74.346207 13.571564 123.419640
v 55.711464 13.571564 123.419640
v 74.346207 6.373642 127.159065
v 55.711464 6.373642 127.159065
v 74.346207 0.682266 132.866623
v 55.711464 0.682266 132.866623
v 74.346207 -3.000381 139.951859
v 55.711464 -3.000381 139.951859
v 74.346207 -4.339527 148.217987
v 55.711464 -4.339527 148.217987
v 74.346207 -3.000374 156.680923
v 55.711464 -3.000374 156.680923
v 74.346207 0.682274 163.766174
v 55.711464 0.682274 163.766174
v 74.346207 6.373650 169.473724
v 55.711464 6.373650 169.473724
v -64.678787 21.857529 122.041946
v -46.044044 30.143501 123.419632
v -64.678787 30.143501 123.419632
v -46.044044 37.341415 127.159058
v -64.678787 37.341415 127.159058
v -46.044044 43.032799 132.866623
v -64.678787 43.032799 132.866623
v -46.044044 46.715446 139.951859
v -64.678787 46.715446 139.951859
v -46.044044 48.054604 148.217987
v -64.678787 48.054604 148.217987
v -46.044044 46.715454 156.680923
v -64.678787 46.715454 156.680923
v -46.044044 43.032806 163.766174
v -64.678787 43.032806 163.766174
v -46.044044 37.341423 169.473724
v -64.678787 37.341423 169.473724
v -46.044044 30.143509 173.213165
v -64.678787 30.143509 173.213165
v -46.044044 21.857536 174.590851
v -64.678787 21.857536 174.590851
v -46.044044 13.571571 173.213165
v -64.678787 13.571571 173.213165
v -46.044044 6.373650 169.473724
v -64.678787 6.373650 169.473724
v -46.044044 21.857529 122.041946
v -64.678787 13.571564 123.419640
v -46.044044 13.571564 123.419640
v -64.678787 6.373642 127.159065
v -46.044044 6.373642 127.159065
v -64.678787 0.682266 132.866623
v -46.044044 0.682266 132.866623
v -64.678787 -3.000381 139.951859
v -46.044044 -3.000381 139.951859
v -64.678787 -4.339527 148.217987
v -46.044044 -4.339527 148.217987
v -64.678787 -3.000374 156.680923
v -46.044044 -3.000374 156.680923
v -64.678787 0.682274 163.766174
v -46.044044 0.682274 163.766174
v -64.678787 6.373650 169.473724
v -46.044044 6.373650 169.473724
v 74.346207 21.857498 -107.638130
v 55.711464 30.143471 -106.260445
v 74.346207 30.143471 -106.260445
v 55.711464 37.341385 -102.521011
v 74.346207 37.341385 -102.521011
v 55.711464 43.032768 -96.813446
v 74.346207 43.032768 -96.813446
v 55.711464 46.715416 -89.728203
v 74.346207 46.715416 -89.728203
v 55.711464 48.054573 -81.462074
v 74.346207 48.054573 -81.462074
v 55.711464 46.715424 -73.195961
v 74.346207 46.715424 -73.195961
v 55.711464 43.032776 -65.913902
v 74.346207 43.032776 -65.913902
v 55.711464 37.341393 -60.206341
v 74.346207 37.341393 -60.206341
v 55.711464 30.143478 -56.466900
v 74.346207 30.143478 -56.466900
v 55.711464 21.857506 -55.286030
v 74.346207 21.857506 -55.286030
v 55.711464 13.571541 -56.466900
v 74.346207 13.571541 -56.466900
v 55.711464 6.373619 -60.206337
v 74.346207 6.373619 -60.206337
v 55.711464 21.857498 -107.638130
v 74.346207 13.571533 -106.260437
v 55.711464 13.571533 -106.260437
v 74.346207 6.373611 -102.521004
v 55.711464 6.373611 -102.521004
v 74.346207 0.682236 -96.813438
v 55.711464 0.682236 -96.813438
v 74.346207 -3.000412 -89.728195
v 55.711464 -3.000412 -89.728195
v 74.346207 -4.339558 -81.462067
v 55.711464 -4.339558 -81.462067
v 74.346207 -3.000404 -73.195953
v 55.711464 -3.000404 -73.195953
v 74.346207 0.682243 -65.913895
v 55.711464 0.682243 -65.913895
v 74.346207 6.373619 -60.206337
v 55.711464 6.373619 -60.206337
v -64.678787 21.857498 -107.638130
v -46.044044 30.143471 -106.260445
v -64.678787 30.143471 -106.260445
v -46.044044 37.341385 -102.521011
v -64.678787 37.341385 -102.521011
v -46.044044 43.032768 -96.813446
v -64.678787 43.032768 -96.813446
v -46.044044 46.715416 -89.728203
v -64.678787 46.715416 -89.728203
v -46.044044 48.054573 -81.462074
v -64.678787 48.054573 -81.462074
v -46.044044 46.715424 -73.195961
v -64.678787 46.715424 -73.195961
v -46.044044 43.032776 -65.913902
v -64.678787 43.032776 -65.913902
v -46.044044 37.341393 -60.206341
v -64.678787 37.341393 -60.206341
v -46.044044 30.143478 -56.466900
v -64.678787 30.143478 -56.466900
v -46.044044 21.857506 -55.286030
v -64.678787 21.857506 -55.286030
v -46.044044 13.571541 -56.466900
v -64.678787 13.571541 -56.466900
v -46.044044 6.373619 -60.206337
v -64.678787 6.373619 -60.206337
v -46.044044 21.857498 -107.638130
v -64.678787 13.571533 -106.260437
v -46.044044 13.571533 -106.260437
v -64.678787 6.373611 -102.521004
v -46.044044 6.373611 -102.521004
v -64.678787 0.682236 -96.813438
v -46.044044 0.682236 -96.813438
v -64.678787 -3.000412 -89.728195
v -46.044044 -3.000412 -89.728195
v -64.678787 -4.339558 -81.462067
v -46.044044 -4.339558 -81.462067
v -64.678787 -3.000404 -73.195953
v -46.044044 -3.000404 -73.195953
v -64.678787 0.682243 -65.913895
v -46.044044 0.682243 -65.913895
v -64.678787 6.373619 -60.206337
v -46.044044 6.373619 -60.206337
v 54.975880 162.384247 -139.324951
v 50.398930 164.476654 -136.569565
v 55.548000 162.635345 -131.058823
v 50.971046 164.811462 -115.904259
v 55.956657 162.384247 -115.707458
v 51.052776 165.397339 -32.652622
v 55.711464 163.304901 -31.668558
v 55.711464 163.137543 71.657951
v 49.663345 165.481049 72.445198
v 56.528778 161.212524 103.935181
v 50.235466 162.551666 105.706497
v 4.874576 166.820190 74.413322
v 4.874576 163.388611 107.674622
v -40.568047 162.551666 105.706497
v -39.995926 165.481049 72.445198
v -46.861359 161.212524 103.935181
v -46.044044 163.137543 71.657951
v -41.385361 165.397339 -32.652622
v -46.044044 163.304901 -31.668558
v -46.289238 162.384247 -115.707458
v -41.303627 164.811462 -115.904259
v -45.880581 162.635345 -131.058823
v -40.731506 164.476654 -136.569565
v -45.308464 162.384247 -139.324951
v -39.342075 163.556000 -141.883499
v -17.765005 165.732117 -136.963196
v -18.827511 163.807068 -143.851624
v 4.874576 164.141876 -144.442062
v 4.874576 165.983215 -137.356812
v 27.432425 165.732117 -136.963196
v 28.494932 163.807068 -143.851624
v 49.009495 163.556000 -141.883499
v 27.922812 166.150604 -115.313828
v 4.874576 166.485382 -115.707458
v -18.255392 166.150604 -115.313828
v 4.874576 166.987579 -35.407993
v 76.144302 96.431297 180.101593
v 75.326981 98.356331 180.101593
v 72.875046 96.347603 181.676086
v 71.485611 101.118309 181.872910
v 74.918327 101.620491 180.495224
v 78.432777 101.871574 178.723907
v 75.653915 104.549889 180.298401
v 76.062569 107.479271 179.707962
v 76.471222 109.487968 179.511139
v 77.451996 111.329308 179.117523
v 79.495285 112.166283 178.527069
v 82.927994 101.704185 177.149414
v 83.091461 112.333656 177.149399
v 85.625137 111.580391 176.165329
v 87.014565 109.906456 175.771698
v 87.504959 106.893379 175.574890
v 87.504959 101.536781 175.574905
v 85.952057 97.686745 176.165344
v 87.178024 99.109596 175.771713
v 79.168358 96.514992 178.723907
v 78.677971 98.607399 178.920715
v -66.476875 96.431297 180.101593
v -65.659561 98.356331 180.101593
v -63.207623 96.347603 181.676086
v -61.818192 101.118309 181.872910
v -65.250908 101.620491 180.495224
v -68.765358 101.871574 178.723907
v -65.986496 104.549889 180.298401
v -66.395149 107.479271 179.707962
v -66.803802 109.487968 179.511139
v -67.784584 111.329308 179.117523
v -69.827866 112.166283 178.527069
v -73.260582 101.704185 177.149414
v -73.424042 112.333656 177.149399
v -75.957718 111.580391 176.165329
v -77.347145 109.906456 175.771698
v -77.837532 106.893379 175.574890
v -77.837532 101.536781 175.574905
v -76.284637 97.686745 176.165344
v -77.510605 99.109596 175.771713
v -69.500938 96.514992 178.723907
v -69.010551 98.607399 178.920715
v 4.874576 164.141876 -144.442062
v 4.874576 154.767853 -149.165558
v 28.494932 163.807068 -143.851624
v 30.946871 154.935242 -148.378311
v 4.874576 126.394661 -156.841248
v -21.279449 154.935242 -148.378311
v -44.327686 154.349365 -145.622940
v -39.342075 163.556000 -141.883499
v -45.308464 162.384247 -139.324951
v -50.457539 154.349365 -142.277130
v -50.539268 123.465279 -153.692245
v -58.058552 124.385948 -149.952820
v -18.827511 163.807068 -143.851624
v 49.009495 163.556000 -141.883499
v 53.995106 154.349365 -145.622940
v 54.975880 162.384247 -139.324951
v 60.124958 154.349365 -142.277130
v 60.206688 123.465279 -153.692245
v 67.725967 124.385948 -149.952820
v 63.721134 92.330116 -157.628479
v 72.711578 92.748604 -154.085861
v 70.341370 41.693604 -157.234848
v 60.043224 42.363174 -159.202972
v 59.798031 22.275970 -160.580658
v 4.874576 21.773796 -163.926483
v 4.874576 43.283844 -162.548782
v -50.375805 42.363174 -159.202972
v -50.130608 22.275970 -160.580658
v -60.673950 41.693604 -157.234848
v -58.467209 21.020523 -157.825287
v 4.874576 123.883766 -157.431686
v 68.134628 21.020523 -157.825287
v -54.053715 92.330116 -157.628479
v -63.044163 92.748604 -154.085861
v 4.874576 92.748604 -161.367920
vn 0.9179 0.0764 0.3894
vn 0.9994 -0.0197 0.0302
vn 0.9971 -0.0068 0.0756
vn 0.9991 0.0371 0.0226
vn 0.9944 0.0546 0.0905
vn 0.8783 0.2231 0.4229
vn 0.7365 0.4911 0.4652
vn 0.9657 0.2057 0.1583
vn 0.5860 0.6617 0.4677
vn 0.9457 0.3073 0.1055
vn 0.5956 0.6938 0.4048
vn 0.9536 0.2949 0.0603
vn 0.5053 0.7955 0.3345
vn 0.8988 0.4331 0.0678
vn 0.5419 0.8111 0.2204
vn 0.9177 0.3973 0.0075
vn 0.5574 0.8261 0.0826
vn 0.9501 0.3115 -0.0151
vn 0.6890 0.7246 0.0151
vn 0.9294 0.3690 0.0075
vn 0.6634 0.7483 -0.0000
vn 0.6731 0.7395 -0.0075
vn 0.9278 0.3731 -0.0000
vn 0.6194 0.7847 -0.0226
vn 0.9098 0.4133 -0.0377
vn 0.5665 0.7425 -0.3576
vn 0.7564 0.4526 -0.4722
vn 0.9756 0.2189 -0.0151
vn 0.7710 0.2697 -0.5769
vn 0.9919 0.0894 -0.0905
vn 0.7716 0.1025 -0.6278
vn 0.5556 -0.0022 -0.8315
vn 0.9497 -0.0720 -0.3046
vn 0.4458 -0.7032 -0.5539
vn 0.6855 -0.7125 -0.1501
vn 0.9963 -0.0853 -0.0077
vn 0.6645 -0.7454 -0.0529
vn 0.9938 -0.1112 -0.0076
vn 0.5161 -0.6875 0.5108
vn 0.7518 -0.3322 0.5696
vn 0.9993 -0.0022 -0.0378
vn 0.7809 -0.5063 0.3659
vn 0.9990 0.0415 -0.0151
vn 0.8024 -0.5938 0.0604
vn 0.9956 0.0938 0.0075
vn 0.9905 0.1372 -0.0075
vn 0.9880 0.1545 -0.0000
vn 0.9873 0.1588 -0.0000
vn 0.9993 0.0375 -0.0003
vn 0.9995 -0.0240 0.0226
vn 0.7857 -0.5508 -0.2815
vn 0.9928 -0.1199 -0.0075
vn 0.7572 -0.3609 -0.5445
vn 0.5301 -0.6617 -0.5301
vn 0.6502 -0.7598 -0.0000
vn 0.9960 -0.0895 -0.0075
vn 0.6435 -0.7654 -0.0000
vn 0.9947 -0.1025 -0.0075
vn 0.9922 -0.1242 -0.0076
vn 0.5078 -0.6419 0.5746
vn 0.7506 -0.2739 0.6013
vn 0.9989 -0.0459 -0.0000
vn 0.7662 -0.4682 0.4402
vn 0.9996 0.0284 -0.0000
vn 0.9995 0.0331 -0.0005
vn 0.9998 -0.0197 -0.0074
vn 0.9998 0.0109 -0.0151
vn 0.7783 -0.6078 0.1577
vn 0.9999 0.0066 0.0151
vn 0.7974 -0.5760 -0.1798
vn 0.9933 0.1156 -0.0076
vn 0.9986 -0.0371 0.0377
vn 0.7713 -0.4251 -0.4737
vn 0.9947 -0.1025 -0.0000
vn 0.7398 -0.2486 -0.6252
vn 0.5248 -0.6519 -0.5474
vn 0.7007 -0.7094 0.0754
vn 0.9972 -0.0590 0.0453
vn 0.6244 -0.7156 0.3133
vn 0.8825 -0.1545 0.4442
vn 0.9648 0.1588 0.2097
vn 0.7537 0.5725 0.3229
vn -0.9179 0.0764 0.3894
vn -0.9971 -0.0066 0.0755
vn -0.9994 -0.0197 0.0302
vn -0.9991 0.0371 0.0226
vn -0.9986 -0.0371 0.0377
vn -0.8783 0.2231 0.4229
vn -0.9947 0.0546 0.0867
vn -0.7385 0.4911 0.4620
vn -0.9651 0.2061 0.1615
vn -0.5883 0.6617 0.4647
vn -0.9457 0.3074 0.1055
vn -0.5956 0.6938 0.4048
vn -0.9536 0.2949 0.0603
vn -0.5074 0.7954 0.3314
vn -0.8985 0.4330 0.0716
vn -0.5419 0.8111 0.2204
vn -0.9177 0.3973 0.0075
vn -0.5574 0.8261 0.0826
vn -0.9502 0.3115 -0.0113
vn -0.6890 0.7246 0.0151
vn -0.9294 0.3690 0.0075
vn -0.6634 0.7483 -0.0038
vn -0.6731 0.7395 -0.0038
vn -0.9278 0.3731 -0.0038
vn -0.6193 0.7847 -0.0263
vn -0.9098 0.4133 -0.0377
vn -0.5665 0.7425 -0.3576
vn -0.7584 0.4526 -0.4691
vn -0.9756 0.2189 -0.0151
vn -0.7710 0.2697 -0.5769
vn -0.9915 0.0895 -0.0942
vn -0.7716 0.1025 -0.6278
vn -0.5556 -0.0022 -0.8315
vn -0.9497 -0.0720 -0.3046
vn -0.4429 -0.7033 -0.5561
vn -0.6862 -0.7125 -0.1464
vn -0.9964 -0.0851 -0.0038
vn -0.6645 -0.7454 -0.0529
vn -0.9938 -0.1112 -0.0038
vn -0.5161 -0.6875 0.5108
vn -0.7541 -0.3322 0.5665
vn -0.7825 -0.5063 0.3624
vn -0.9993 -0.0022 -0.0378
vn -0.8026 -0.5938 0.0566
vn -0.9989 0.0458 -0.0113
vn -0.7857 -0.5508 -0.2815
vn -0.9956 0.0939 0.0037
vn -0.9905 0.1372 -0.0113
vn -0.9995 -0.0240 0.0226
vn -0.9928 -0.1199 -0.0075
vn -0.7571 -0.3609 -0.5445
vn -0.5302 -0.6617 -0.5301
vn -0.9960 -0.0896 -0.0040
vn -0.6502 -0.7598 -0.0038
vn -0.6435 -0.7654 -0.0038
vn -0.9947 -0.1024 -0.0078
vn -0.9922 -0.1242 -0.0075
vn -0.9989 -0.0459 -0.0038
vn -0.7506 -0.2739 0.6014
vn -0.7643 -0.4681 0.4435
vn -0.9998 0.0109 -0.0151
vn -0.7783 -0.6077 0.1577
vn -0.7974 -0.5761 -0.1798
vn -0.9999 0.0066 0.0151
vn -0.7733 -0.4251 -0.4704
vn -0.9947 -0.1025 -0.0000
vn -0.7398 -0.2486 -0.6252
vn -0.5275 -0.6519 -0.5448
vn -0.9974 -0.0590 0.0415
vn -0.7008 -0.7094 0.0754
vn -0.6261 -0.7155 0.3099
vn -0.8825 -0.1545 0.4442
vn -0.9648 0.1588 0.2097
vn -0.7551 0.5725 0.3194
vn -0.5112 -0.6385 0.5753
vn -0.9995 0.0329 -0.0000
vn -0.9998 -0.0196 -0.0076
vn -0.9996 0.0284 -0.0000
vn -0.9993 0.0369 -0.0003
vn -0.9880 0.1545 -0.0000
vn -0.9873 0.1588 -0.0000
vn -0.9932 0.1155 -0.0113
vn -0.6743 0.0022 -0.7384
vn -1.0000 0.0020 -0.0000
vn -0.6730 0.2316 -0.7024
vn -0.6729 0.4370 -0.5969
vn -0.6736 0.5973 -0.4353
vn -0.6728 0.7032 -0.2297
vn -0.6731 0.7395 -0.0037
vn -0.6728 0.7032 0.2297
vn -0.6736 0.5973 0.4353
vn -0.6729 0.4370 0.5969
vn -0.6730 0.2316 0.7024
vn -0.6743 0.0022 0.7384
vn -0.6751 -0.2316 0.7004
vn -0.6748 -0.4370 0.5947
vn -0.6753 -0.5973 0.4327
vn -0.6715 -0.7032 0.2337
vn -0.6731 -0.7395 -0.0000
vn -0.6715 -0.7032 -0.2336
vn -0.6753 -0.5973 -0.4327
vn -0.6748 -0.4370 -0.5947
vn -0.6751 -0.2316 -0.7004
vn 0.6730 0.2316 -0.7024
vn 1.0000 0.0020 -0.0000
vn 0.6743 0.0022 -0.7384
vn 0.6724 -0.2317 -0.7030
vn 0.6748 -0.4370 -0.5947
vn 0.6732 -0.5973 -0.4359
vn 0.6727 -0.7032 -0.2301
vn 0.6731 -0.7395 -0.0000
vn 0.6727 -0.7032 0.2301
vn 0.6732 -0.5973 0.4359
vn 0.6754 0.4370 -0.5941
vn 0.6736 0.5973 -0.4353
vn 0.6728 0.7032 -0.2297
vn 0.6731 0.7395 -0.0000
vn 0.6728 0.7032 0.2297
vn 0.6736 0.5973 0.4353
vn 0.6754 0.4370 0.5941
vn 0.6730 0.2316 0.7024
vn 0.6743 0.0022 0.7384
vn 0.6724 -0.2317 0.7030
vn 0.6748 -0.4370 0.5947
vn -0.6731 0.7395 0.0038
vn -0.6730 0.2317 0.7024
vn -0.6751 -0.2317 0.7004
vn 0.6730 0.2317 0.7024
vn 0.6724 -0.2316 0.7031
vn 0.7365 0.4911 0.4651
vn 0.3410 0.7125 0.6132
vn 0.5997 0.3812 0.7036
vn 0.1434 0.9186 0.3683
vn 0.0132 0.9425 0.3340
vn 0.1088 0.7598 0.6410
vn 0.0919 0.8033 0.5884
vn 0.1102 0.8700 0.4806
vn 0.5053 0.7954 0.3345
vn 0.1159 0.9411 0.3177
vn 0.5418 0.8111 0.2204
vn 0.1291 0.9772 0.1688
vn -0.0000 0.9807 0.1954
vn -0.0019 0.9318 0.3629
vn -0.1124 0.9410 0.3192
vn -0.1291 0.9772 0.1687
vn -0.5418 0.8111 0.2204
vn -0.1064 0.8700 0.4814
vn -0.0956 0.8033 0.5878
vn -0.5884 0.6617 0.4647
vn -0.1088 0.7598 0.6410
vn -0.3377 0.7125 0.6151
vn -0.5997 0.3812 0.7036
vn -0.6864 0.0546 0.7252
vn -0.4905 0.6181 0.6143
vn -0.5056 0.6147 0.6055
vn -0.8825 -0.1545 0.4441
vn -0.5282 -0.1285 0.8393
vn -0.6261 -0.7156 0.3099
vn -0.3517 -0.7395 0.5739
vn -0.2421 -0.7336 0.6350
vn -0.4391 -0.0633 0.8962
vn -0.3117 -0.1025 0.9446
vn -0.0942 -0.7454 0.6599
vn -0.1092 -0.0764 0.9911
vn 0.0037 -0.0677 0.9977
vn 0.0038 -0.7454 0.6666
vn 0.0942 -0.7454 0.6600
vn 0.1093 -0.0764 0.9911
vn 0.3117 -0.1025 0.9446
vn 0.2385 -0.7336 0.6363
vn 0.4357 -0.0633 0.8979
vn 0.5314 -0.1285 0.8373
vn 0.3517 -0.7395 0.5740
vn 0.8825 -0.1545 0.4441
vn 0.5085 0.6147 0.6030
vn 0.4876 0.6181 0.6166
vn 0.6837 0.0546 0.7277
vn 0.3688 0.4987 0.7844
vn 0.3642 0.6215 0.6936
vn 0.2213 0.6181 0.7543
vn 0.1954 0.3067 0.9315
vn 0.0038 0.2697 0.9629
vn -0.1951 0.3071 0.9315
vn -0.2177 0.6181 0.7554
vn -0.3675 0.6215 0.6918
vn -0.3125 0.6715 0.6719
vn 0.4457 0.0938 0.8902
vn 0.3091 0.6715 0.6735
vn -0.3927 0.6078 0.6902
vn -0.3497 0.3445 0.8712
vn -0.0019 0.3650 0.9310
vn 0.3496 0.3445 0.8712
vn 0.3927 0.6078 0.6902
vn 0.5042 0.0240 0.8632
vn 0.5553 0.0982 0.8259
vn 0.1429 0.3363 0.9309
vn 0.1296 0.5544 0.8221
vn 0.0431 0.9523 0.3022
vn 0.0187 0.9681 0.2500
vn -0.0000 0.7738 0.6335
vn 0.0016 0.8136 0.5815
vn -0.0019 0.8678 0.4968
vn -0.0187 0.9681 0.2500
vn -0.0169 0.9425 0.3338
vn -0.1434 0.9186 0.3683
vn -0.3689 0.4986 0.7844
vn -0.4424 0.0938 0.8919
vn -0.5042 0.0240 0.8632
vn -0.5552 0.0981 0.8259
vn -0.1333 0.5545 0.8215
vn -0.0468 0.9523 0.3017
vn -0.1428 0.3363 0.9309
vn -0.0000 0.3074 0.9516
vn 0.0019 0.5617 0.8274
vn -0.0019 0.9425 0.3342
vn 0.0001 0.9635 0.2678
vn 0.0038 0.7598 0.6502
vn 0.6439 -0.7598 0.0903
vn 0.6389 -0.6682 -0.3811
vn 0.6509 -0.5832 0.4860
vn 0.6654 -0.2990 0.6840
vn 0.6792 -0.2613 -0.6859
vn 0.5301 -0.6617 -0.5302
vn 0.2696 -0.9023 -0.3363
vn 0.2453 -0.9439 0.2210
vn 0.0150 -0.9962 -0.0860
vn 0.1073 -0.5938 -0.7974
vn 0.4458 -0.7032 -0.5538
vn 0.0038 -0.6351 -0.7724
vn -0.0000 -0.9958 -0.0916
vn -0.0000 -0.9989 -0.0474
vn -0.0022 -1.0000 -0.0038
vn 0.0040 -0.9999 0.0125
vn 0.2497 -0.9334 0.2578
vn 0.6432 -0.2696 0.7166
vn 0.6483 -0.5213 0.5549
vn 0.7662 -0.4681 0.4402
vn 0.6525 -0.7306 0.2009
vn 0.7974 -0.5761 -0.1798
vn 0.6410 -0.7277 -0.2442
vn 0.7713 -0.4252 -0.4737
vn 0.6573 -0.4645 -0.5934
vn 0.6647 -0.2401 -0.7074
vn 0.2650 -0.9410 -0.2103
vn 0.0038 -0.9979 0.0654
vn 0.0188 -0.9979 0.0627
vn 0.0019 -0.9969 0.0785
vn 0.3517 -0.7395 0.5739
vn 0.0942 -0.7454 0.6599
vn -0.0187 -0.9979 0.0627
vn -0.7007 -0.7094 0.0754
vn -0.5275 -0.6519 -0.5449
vn -0.2627 -0.9410 -0.2133
vn -0.2497 -0.9334 0.2578
vn -0.2696 -0.9023 -0.3363
vn -0.2453 -0.9439 0.2210
vn -0.0151 -0.9962 -0.0860
vn -0.1036 -0.5938 -0.7979
vn -0.4428 -0.7032 -0.5562
vn -0.6654 -0.2990 0.6840
vn -0.7541 -0.3322 0.5666
vn -0.6510 -0.5832 0.4859
vn -0.6434 -0.7598 0.0941
vn -0.6408 -0.6683 -0.3780
vn -0.7572 -0.3609 -0.5445
vn -0.6765 -0.2613 -0.6886
vn -0.5301 -0.6617 -0.5302
vn -0.6460 -0.2697 0.7141
vn -0.7506 -0.2739 0.6013
vn -0.6483 -0.5213 0.5549
vn -0.6525 -0.7306 0.2009
vn -0.7783 -0.6078 0.1577
vn -0.6410 -0.7277 -0.2441
vn -0.7733 -0.4251 -0.4705
vn -0.6556 -0.4643 -0.5955
vn -0.6647 -0.2401 -0.7074
vn -0.5988 0.3032 0.7413
vn -0.5276 0.1372 0.8384
vn 0.1633 0.3649 0.9166
vn -0.0208 0.1631 0.9864
vn 0.3118 -0.0241 0.9498
vn 0.3195 -0.5867 0.7441
vn -0.4532 0.7094 0.5397
vn -0.0320 0.8887 0.4573
vn 0.2753 0.8966 0.3469
vn 0.4928 0.3404 0.8008
vn 0.6923 0.6683 0.2724
vn 0.9435 0.3115 0.1130
vn 0.6615 0.0502 0.7482
vn 0.6636 -0.1286 0.7370
vn 0.4565 -0.6812 0.5724
vn 0.8158 -0.5471 0.1873
vn 0.2116 -0.7541 -0.6218
vn 0.4326 -0.3404 -0.8348
vn 0.4493 -0.0590 -0.8914
vn 0.9918 -0.0590 0.1130
vn 0.9967 0.0546 0.0604
vn 0.4476 0.0764 -0.8910
vn 0.4154 0.3486 -0.8402
vn -0.1200 -0.8358 -0.5357
vn -0.1903 -0.8476 -0.4953
vn 0.3390 -0.6418 0.6878
vn -0.2765 -0.7954 -0.5393
vn 0.3235 -0.7569 0.5678
vn 0.2425 0.2697 0.9319
vn 0.3147 0.5435 0.7782
vn -0.3613 0.8136 0.4556
vn -0.1141 0.9658 0.2327
vn -0.5903 0.3609 0.7220
vn -0.6608 -0.1285 0.7395
vn -0.4594 -0.6812 0.5700
vn -0.3118 -0.0240 0.9498
vn -0.3195 -0.5867 0.7441
vn 0.0245 0.1631 0.9863
vn -0.1596 0.3649 0.9173
vn -0.6643 0.0502 0.7457
vn -0.9923 -0.0590 0.1092
vn -0.8158 -0.5471 0.1873
vn -0.2116 -0.7541 -0.6218
vn 0.1200 -0.8358 -0.5357
vn 0.1939 -0.8476 -0.4939
vn -0.3390 -0.6418 0.6878
vn 0.2765 -0.7954 -0.5393
vn -0.3267 -0.7569 0.5659
vn -0.2425 0.2697 0.9319
vn 0.5932 0.3609 0.7196
vn 0.5244 0.1372 0.8404
vn 0.6017 0.3032 0.7389
vn 0.4503 0.7094 0.5422
vn 0.0282 0.8887 0.4576
vn -0.2753 0.8966 0.3469
vn -0.4960 0.3404 0.7988
vn -0.6922 0.6683 0.2724
vn -0.9439 0.3115 0.1092
vn -0.9964 0.0546 0.0641
vn -0.4460 -0.0590 -0.8931
vn -0.4326 -0.3404 -0.8348
vn -0.4154 0.3486 -0.8402
vn -0.4408 0.0764 -0.8943
vn 0.6922 0.6683 0.2724
vn 0.1571 0.6683 -0.7271
vn -0.1533 0.7336 -0.6621
vn -0.0319 0.8887 0.4573
vn -0.3829 0.7125 -0.5880
vn -0.4532 0.7094 0.5398
vn -0.6925 0.5617 -0.4528
vn -0.8759 0.2865 -0.3883
vn -0.9041 0.1416 -0.4031
vn -0.9400 0.1112 -0.3225
vn -0.6511 0.3568 -0.6698
vn -0.3612 0.8136 0.4556
vn -0.2967 0.8430 -0.4487
vn -0.1571 0.6683 -0.7271
vn 0.1533 0.7336 -0.6620
vn 0.3798 0.7125 -0.5900
vn 0.6973 0.5580 -0.4498
vn 0.8772 0.2823 -0.3884
vn 0.9041 0.1416 -0.4031
vn 0.9388 0.1112 -0.3261
vn 0.5932 0.3609 0.7197
vn 0.6511 0.3568 -0.6698
vn 0.3583 0.8136 0.4579
vn 0.2936 0.8430 -0.4508
vn 0.1175 0.9658 0.2310
vn -0.3112 0.5435 0.7796
vn 0.6744 0.0022 -0.7384
vn -0.6730 0.2317 -0.7024
vn -0.6736 0.5973 -0.4354
vn 0.6736 0.5973 -0.4354
vn -0.6736 0.5973 0.4354
vn 0.6736 0.5973 0.4354
vn 0.6754 0.4369 0.5941
vn -0.6744 0.0022 0.7384
vn 0.6744 0.0022 0.7384
vn 0.6723 -0.2317 0.7031
vn -0.6744 0.0022 -0.7384
vn 0.6723 -0.2316 -0.7031
vn -0.6715 -0.7032 -0.2337
vn -0.6752 -0.5973 0.4327
vn 0.6754 0.4370 -0.5940
vn 0.6723 -0.2316 0.7031
vn -0.6752 -0.5973 -0.4327
vn -0.6714 -0.7033 0.2337
vn 0.6727 -0.7033 0.2301
vn -0.6753 -0.5973 0.4328
vn 0.6730 0.2317 -0.7024
vn -0.6751 -0.2316 0.7005
vn 0.6754 0.4369 -0.5941
vn -0.6729 0.4369 -0.5969
vn -0.6715 -0.7033 0.2336
vn 0.5665 0.7425 -0.3575
vn 0.2117 0.9713 -0.1082
vn 0.2587 0.9658 -0.0150
vn 0.2295 0.9733 -0.0001
vn 0.6889 0.7247 0.0151
vn 0.1946 0.9799 0.0447
vn 0.1291 0.9772 0.1687
vn 0.0018 0.9986 0.0523
vn -0.0000 0.9807 0.1953
vn -0.1954 0.9799 0.0410
vn -0.6889 0.7247 0.0151
vn -0.2295 0.9733 -0.0001
vn -0.2589 0.9658 -0.0112
vn -0.6193 0.7847 -0.0264
vn -0.2101 0.9713 -0.1119
vn -0.5665 0.7425 -0.3575
vn -0.1854 0.7820 -0.5950
vn -0.0350 0.9890 -0.1438
vn -0.0471 0.7710 -0.6351
vn -0.0000 0.7738 -0.6334
vn 0.0019 0.9896 -0.1436
vn 0.0314 0.9890 -0.1446
vn 0.0433 0.7710 -0.6353
vn 0.1854 0.7820 -0.5950
vn 0.0342 0.9994 -0.0073
vn -0.0000 0.9999 -0.0131
vn -0.0342 0.9994 -0.0073
vn 0.0013 1.0000 -0.0042
vn -0.2765 -0.7955 -0.5393
vn -0.4240 -0.0284 -0.9052
vn -0.6512 0.3568 -0.6698
vn -0.3894 -0.0328 -0.9205
vn -0.9041 0.1415 -0.4031
vn -0.3830 0.7125 -0.5879
vn -0.3404 -0.0197 -0.9401
vn -0.1533 0.7336 -0.6620
vn 0.4326 -0.3404 -0.8349
vn -0.3332 -0.0328 -0.9423
vn 0.4240 -0.0284 -0.9052
vn 0.2765 -0.7955 -0.5393
vn 0.6512 0.3568 -0.6698
vn 0.3894 -0.0328 -0.9205
vn 0.9041 0.1415 -0.4031
vn 0.8772 0.2823 -0.3883
vn 0.6973 0.5581 -0.4498
vn 0.3404 -0.0197 -0.9401
vn -0.4409 0.0764 -0.8943
vn -0.4460 -0.0589 -0.8931
vn -0.4326 -0.3404 -0.8349
vn 0.3332 -0.0328 -0.9423
vn 0.0037 0.3568 -0.9342
vn 0.0829 0.3363 -0.9381
vn 0.0019 0.2359 -0.9718
vn -0.0829 0.3363 -0.9381
vn -0.2927 0.3932 -0.8716
vn -0.7584 0.4526 -0.4690
vn -0.2446 0.2146 -0.9456
vn -0.0470 0.7710 -0.6351
vn 0.2927 0.3933 -0.8716
vn 0.2409 0.2146 -0.9465
vn 0.2134 0.0808 -0.9736
vn 0.1279 0.0415 -0.9909
vn 0.1074 -0.5938 -0.7974
vn -0.0000 0.0416 -0.9991
vn -0.1278 0.0416 -0.9909
vn -0.4429 -0.7032 -0.5562
vn -0.0019 0.1760 -0.9844
vn -0.2134 0.0807 -0.9736
vn 0.0037 0.0764 -0.9971
vt 0.108063 0.762057
vt 0.129524 0.741854
vt 0.130120 0.761101
vt 0.197484 0.782260
vt 0.133459 0.812984
vt 0.119748 0.815135
vt 0.131790 0.834502
vt 0.139062 0.829959
vt 0.163862 0.864747
vt 0.169108 0.860802
vt 0.225264 0.915674
vt 0.234087 0.909935
vt 0.279155 0.949983
vt 0.289647 0.945202
vt 0.307055 0.961818
vt 0.330543 0.955722
vt 0.349381 0.972219
vt 0.416625 0.953928
vt 0.421871 0.976642
vt 0.655439 0.956439
vt 0.654008 0.977001
vt 0.843223 0.974849
vt 0.846442 0.956678
vt 0.877441 0.975447
vt 0.879468 0.957156
vt 0.896041 0.974849
vt 0.902718 0.957037
vt 0.897591 0.886265
vt 0.920125 0.889971
vt 0.912852 0.818602
vt 0.929425 0.819559
vt 0.936221 0.705512
vt 0.923344 0.702523
vt 0.937652 0.659367
vt 0.922152 0.659487
vt 0.887814 0.698459
vt 0.891153 0.658052
vt 0.837262 0.693557
vt 0.836427 0.653031
vt 0.829273 0.692959
vt 0.814131 0.727747
vt 0.810435 0.719738
vt 0.773475 0.743049
vt 0.774071 0.735996
vt 0.854073 0.816211
vt 0.765963 0.829003
vt 0.654008 0.833546
vt 0.396714 0.831752
vt 0.645543 0.792541
vt 0.725903 0.733247
vt 0.732699 0.728226
vt 0.695857 0.694753
vt 0.702653 0.694155
vt 0.695857 0.652433
vt 0.647808 0.652553
vt 0.641966 0.698698
vt 0.360707 0.652553
vt 0.357846 0.694274
vt 0.317785 0.687460
vt 0.314566 0.652553
vt 0.312062 0.686504
vt 0.301689 0.719140
vt 0.296563 0.716271
vt 0.380141 0.786325
vt 0.276652 0.784054
vt 0.334835 0.737550
vt 0.264610 0.740658
vt 0.263179 0.735757
vt 0.222641 0.740419
vt 0.225145 0.736235
vt 0.204399 0.819559
vt 0.189973 0.715434
vt 0.195457 0.713043
vt 0.176858 0.680049
vt 0.180554 0.680049
vt 0.178527 0.657454
vt 0.125351 0.662356
vt 0.125113 0.679331
vt 0.090656 0.663193
vt 0.088629 0.675028
vt 0.107944 0.740658
vt 0.088867 0.739343
vt 0.191284 0.714956
vt 0.836546 0.693557
vt 0.813178 0.725835
vt 0.773594 0.742093
vt 0.726856 0.732529
vt 0.696573 0.694633
vt 0.320408 0.687939
vt 0.304789 0.720933
vt 0.264729 0.741256
vt 0.222045 0.741256
vt 0.211672 0.691644
vt 0.246845 0.691644
vt 0.213461 0.702762
vt 0.218468 0.712445
vt 0.226099 0.720096
vt 0.235756 0.724998
vt 0.246845 0.726791
vt 0.257933 0.724998
vt 0.267590 0.720096
vt 0.275221 0.712445
vt 0.280228 0.702762
vt 0.282017 0.691644
vt 0.280228 0.680646
vt 0.275221 0.670963
vt 0.267590 0.663432
vt 0.257933 0.658411
vt 0.246845 0.656618
vt 0.235756 0.658411
vt 0.226099 0.663432
vt 0.218468 0.670963
vt 0.213461 0.680646
vt 0.472782 0.208200
vt 0.617047 0.160143
vt 0.465151 0.160143
vt 0.472782 0.112205
vt 0.494362 0.070483
vt 0.527269 0.037608
vt 0.569118 0.015970
vt 0.617047 0.008200
vt 0.665096 0.015970
vt 0.706826 0.037608
vt 0.494362 0.249922
vt 0.527269 0.282917
vt 0.569118 0.304435
vt 0.617047 0.312205
vt 0.665096 0.304435
vt 0.706826 0.282917
vt 0.739733 0.249922
vt 0.761313 0.208200
vt 0.768944 0.160143
vt 0.761313 0.112205
vt 0.739733 0.070483
vt 0.446671 0.250400
vt 0.437132 0.251954
vt 0.450128 0.223741
vt 0.438086 0.226013
vt 0.412452 0.252074
vt 0.412214 0.251596
vt 0.408995 0.293556
vt 0.439875 0.292122
vt 0.401841 0.362773
vt 0.423660 0.362176
vt 0.389560 0.406408
vt 0.410783 0.409396
vt 0.386222 0.429719
vt 0.405060 0.425655
vt 0.399933 0.439881
vt 0.380499 0.443945
vt 0.241837 0.446575
vt 0.241837 0.429839
vt 0.449651 0.150818
vt 0.437729 0.151057
vt 0.434152 0.122964
vt 0.451917 0.121291
vt 0.451201 0.119497
vt 0.440232 0.119497
vt 0.445955 0.030914
vt 0.424494 0.031751
vt 0.442617 0.014775
vt 0.417579 0.013580
vt 0.392183 0.014058
vt 0.407683 0.052312
vt 0.379784 0.049922
vt 0.327681 0.014058
vt 0.329350 0.049682
vt 0.241837 0.050519
vt 0.241837 0.012982
vt 0.415195 0.228523
vt 0.421037 0.118421
vt 0.381095 0.116748
vt 0.346161 0.117346
vt 0.241837 0.117346
vt 0.414598 0.121410
vt 0.416387 0.151655
vt 0.374061 0.121171
vt 0.355938 0.149742
vt 0.241837 0.150699
vt 0.365596 0.150221
vt 0.389084 0.194333
vt 0.348546 0.192659
vt 0.339365 0.227089
vt 0.333523 0.252074
vt 0.331139 0.248607
vt 0.242195 0.295947
vt 0.241837 0.365045
vt 0.241837 0.406527
vt 0.241837 0.196246
vt 0.241837 0.227686
vt 0.241837 0.252193
vt 0.242552 0.251954
vt 0.242075 0.292480
vt 0.286309 0.703958
vt 0.285951 0.701328
vt 0.256502 0.703958
vt 0.256502 0.701328
vt 0.256502 0.706349
vt 0.256502 0.707544
vt 0.285117 0.707544
vt 0.282255 0.708142
vt 0.285832 0.706349
vt 0.284998 0.699415
vt 0.256502 0.699415
vt 0.282255 0.699056
vt 0.259244 0.699056
vt 0.282255 0.695829
vt 0.256502 0.708142
vt 0.263656 0.711848
vt 0.282613 0.711609
vt 0.282375 0.713641
vt 0.272717 0.714956
vt 0.279990 0.714597
vt 0.224907 0.715554
vt 0.224907 0.715315
vt 0.224668 0.708859
vt 0.224668 0.699535
vt 0.224668 0.675147
vt 0.257456 0.674430
vt 0.282255 0.677179
vt 0.282375 0.674191
vt 0.259364 0.674071
vt 0.284998 0.674071
vt 0.259364 0.673115
vt 0.285713 0.673115
vt 0.259364 0.670843
vt 0.286071 0.670843
vt 0.286071 0.668453
vt 0.259364 0.668453
vt 0.285594 0.666540
vt 0.259364 0.666540
vt 0.284521 0.665464
vt 0.259364 0.665464
vt 0.283448 0.665344
vt 0.258767 0.665344
vt 0.224787 0.665105
vt 0.261867 0.662595
vt 0.224787 0.664866
vt 0.283805 0.661997
vt 0.282136 0.659726
vt 0.274863 0.658650
vt 0.267709 0.658052
vt 0.249229 0.657454
vt 0.224668 0.657215
vt 0.780390 0.118780
vt 0.777767 0.096425
vt 0.815204 0.126311
vt 0.793147 0.064387
vt 0.818901 0.064506
vt 0.802805 0.025415
vt 0.788974 0.139103
vt 0.807097 0.146037
vt 0.838454 0.146156
vt 0.850019 0.126909
vt 0.861226 0.137071
vt 0.871242 0.121051
vt 0.863253 0.088296
vt 0.861703 0.057572
vt 0.856338 0.028045
vt 0.871719 0.033185
vt 0.853000 0.020633
vt 0.863849 0.032946
vt 0.866353 0.053747
vt 0.874580 0.055301
vt 0.874461 0.094154
vt 0.866234 0.099653
vt 0.862061 0.124996
vt 0.795889 0.010830
vt 0.770613 0.009754
vt 0.778840 0.020035
vt 0.743071 0.009156
vt 0.746648 0.012145
vt 0.775978 0.045379
vt 0.742833 0.041553
vt 0.762029 0.052671
vt 0.731626 0.047531
vt 0.771567 0.069049
vt 0.845608 0.171261
vt 0.864565 0.180107
vt 0.839885 0.180944
vt 0.860750 0.191225
vt 0.834400 0.202582
vt 0.853477 0.211548
vt 0.824147 0.232349
vt 0.843581 0.240358
vt 0.820570 0.249444
vt 0.837977 0.256377
vt 0.834996 0.264626
vt 0.814251 0.257693
vt 0.833923 0.268093
vt 0.811270 0.260083
vt 0.829631 0.271201
vt 0.810912 0.266061
vt 0.827962 0.277059
vt 0.807216 0.275146
vt 0.817112 0.304435
vt 0.801732 0.303957
vt 0.665216 0.459845
vt 0.692757 0.350460
vt 0.692757 0.459845
vt 0.719464 0.350460
vt 0.719464 0.459845
vt 0.745933 0.350460
vt 0.745933 0.459845
vt 0.772640 0.350460
vt 0.772640 0.459845
vt 0.800182 0.350460
vt 0.800182 0.459845
vt 0.827843 0.350460
vt 0.827843 0.459845
vt 0.854430 0.350460
vt 0.854430 0.459845
vt 0.880899 0.350460
vt 0.880899 0.459845
vt 0.907487 0.350460
vt 0.907487 0.459845
vt 0.935148 0.350460
vt 0.935148 0.459845
vt 0.962689 0.350460
vt 0.962689 0.459845
vt 0.989397 0.350460
vt 0.989397 0.459845
vt 0.665216 0.350460
vt 0.637555 0.459845
vt 0.637555 0.350460
vt 0.610848 0.459845
vt 0.610848 0.350460
vt 0.584498 0.459845
vt 0.584498 0.350460
vt 0.557791 0.459845
vt 0.557791 0.350580
vt 0.530250 0.459845
vt 0.530250 0.350580
vt 0.502589 0.459845
vt 0.502589 0.350580
vt 0.476001 0.459845
vt 0.475882 0.350580
vt 0.449532 0.459845
vt 0.449532 0.350580
vt 0.892226 0.517825
vt 0.886026 0.528464
vt 0.873745 0.516390
vt 0.839646 0.527149
vt 0.839527 0.515553
vt 0.653054 0.527030
vt 0.650551 0.516151
vt 0.418652 0.516151
vt 0.417221 0.530377
vt 0.346161 0.514119
vt 0.342585 0.528942
vt 0.412929 0.635458
vt 0.338173 0.635458
vt 0.898068 0.531931
vt 0.887099 0.582499
vt 0.902718 0.579869
vt 0.903672 0.635458
vt 0.887933 0.635458
vt 0.838573 0.581304
vt 0.839288 0.635458
vt 0.659135 0.635458
vt 0.224787 0.670724
vt 0.212030 0.670365
vt 0.221449 0.677179
vt 0.206546 0.686624
vt 0.219899 0.688058
vt 0.233729 0.689134
vt 0.222761 0.698220
vt 0.224310 0.708142
vt 0.225980 0.714836
vt 0.230033 0.720933
vt 0.237902 0.723922
vt 0.251494 0.688656
vt 0.251852 0.724400
vt 0.261748 0.721890
vt 0.267352 0.716151
vt 0.269140 0.706110
vt 0.269259 0.688058
vt 0.263060 0.675028
vt 0.268067 0.679929
vt 0.236472 0.671083
vt 0.234803 0.678255
vt 0.224549 0.439283
vt 0.154443 0.438326
vt 0.224549 0.411787
vt 0.147289 0.412146
vt 0.224430 0.328344
vt 0.079210 0.410472
vt 0.093994 0.437490
vt 0.076349 0.434142
vt 0.061087 0.410472
vt 0.060730 0.319498
vt 0.038553 0.322247
vt 0.050357 0.228045
vt 0.023769 0.229241
vt 0.030803 0.079091
vt 0.061207 0.081004
vt 0.062041 0.021948
vt 0.224549 0.020513
vt 0.224549 0.083753
vt 0.037242 0.018242
vt 0.224430 0.320932
vt 0.224549 0.229241
s 1
usemtl Material.001
f 1/1/1 2/2/2 3/3/3
f 2/2/2 4/4/4 3/3/3
f 4/4/4 5/5/5 3/3/3
f 3/3/3 5/5/5 6/6/6
f 6/6/6 5/5/5 7/7/7
f 5/5/5 8/8/8 7/7/7
f 7/7/7 8/8/8 9/9/9
f 8/8/8 10/10/10 9/9/9
f 9/9/9 10/10/10 11/11/11
f 10/10/10 12/12/12 11/11/11
f 11/11/11 12/12/12 13/13/13
f 12/12/12 14/14/14 13/13/13
f 13/13/13 14/14/14 15/15/15
f 14/14/14 16/16/16 15/15/15
f 15/15/15 16/16/16 17/17/17
f 16/16/16 18/18/18 17/17/17
f 17/17/17 18/18/18 19/19/19
f 18/18/18 20/20/20 19/19/19
f 19/19/19 20/20/20 21/21/21
f 21/21/21 20/20/20 22/22/22
f 20/20/20 23/23/23 22/22/22
f 22/22/22 23/23/23 24/24/24
f 23/23/23 25/25/25 24/24/24
f 24/24/24 25/25/25 26/26/26
f 26/26/26 25/25/25 27/27/27
f 25/25/25 28/28/28 27/27/27
f 27/27/27 28/28/28 29/29/29
f 28/28/28 30/30/30 29/29/29
f 29/29/29 30/30/30 31/31/31
f 31/31/31 30/30/30 32/32/32
f 30/30/30 33/33/33 32/32/32
f 32/32/32 33/33/33 34/34/34
f 34/34/34 33/33/33 35/35/35
f 33/33/33 36/36/36 35/35/35
f 35/35/35 36/36/36 37/37/37
f 36/36/36 38/38/38 37/37/37
f 37/37/37 38/38/38 39/39/39
f 39/39/39 38/38/38 40/40/40
f 38/38/38 41/41/41 40/40/40
f 40/40/40 41/41/41 42/42/42
f 41/41/41 43/43/43 42/42/42
f 42/42/42 43/43/43 44/44/44
f 3/3/3 6/6/6 1/1/1
f 25/25/25 23/23/23 28/28/28
f 23/23/23 45/45/45 28/28/28
f 28/28/28 45/45/45 30/30/30
f 45/45/45 36/36/36 30/30/30
f 30/30/30 36/36/36 33/33/33
f 38/38/38 36/36/36 41/41/41
f 36/36/36 45/45/45 41/41/41
f 41/41/41 45/45/45 43/43/43
f 43/43/43 45/45/45 46/46/46
f 45/45/45 23/23/23 46/46/46
f 23/23/23 20/20/20 46/46/46
f 46/46/46 20/20/20 47/47/47
f 20/20/20 18/18/18 47/47/47
f 47/47/47 18/18/18 48/48/48
f 18/18/18 16/16/16 48/48/48
f 48/48/48 49/49/49 47/47/47
f 47/47/47 49/49/49 46/46/46
f 49/49/49 50/50/50 46/46/46
f 46/46/46 50/50/50 43/43/43
f 43/43/43 50/50/50 44/44/44
f 44/44/44 50/50/50 51/51/51
f 50/50/50 52/52/52 51/51/51
f 51/51/51 52/52/52 53/53/53
f 53/53/53 52/52/52 54/54/54
f 54/54/54 52/52/52 55/55/55
f 52/52/52 56/56/56 55/55/55
f 55/55/55 56/56/56 57/57/57
f 56/56/56 58/58/58 57/57/57
f 58/58/58 59/59/59 57/57/57
f 57/57/57 59/59/59 60/60/60
f 60/60/60 59/59/59 61/61/61
f 59/59/59 62/62/62 61/61/61
f 61/61/61 62/62/62 63/63/63
f 52/52/52 50/50/50 56/56/56
f 50/50/50 49/49/49 56/56/56
f 56/56/56 49/49/49 64/64/64
f 49/49/49 48/48/48 64/64/64
f 48/48/48 65/65/65 64/64/64
f 64/64/64 65/65/65 66/66/66
f 65/65/65 62/62/62 66/66/66
f 62/62/62 59/59/59 66/66/66
f 59/59/59 58/58/58 66/66/66
f 66/66/66 58/58/58 64/64/64
f 58/58/58 56/56/56 64/64/64
f 65/65/65 67/67/67 62/62/62
f 62/62/62 67/67/67 63/63/63
f 63/63/63 67/67/67 68/68/68
f 67/67/67 69/69/69 68/68/68
f 68/68/68 69/69/69 70/70/70
f 69/69/69 67/67/67 4/4/4
f 67/67/67 65/65/65 4/4/4
f 4/4/4 65/65/65 71/71/71
f 65/65/65 48/48/48 71/71/71
f 48/48/48 16/16/16 71/71/71
f 16/16/16 14/14/14 71/71/71
f 14/14/14 12/12/12 71/71/71
f 12/12/12 10/10/10 71/71/71
f 10/10/10 8/8/8 71/71/71
f 8/8/8 5/5/5 71/71/71
f 71/71/71 5/5/5 4/4/4
f 4/4/4 72/72/72 69/69/69
f 69/69/69 72/72/72 70/70/70
f 70/70/70 72/72/72 73/73/73
f 72/72/72 74/74/74 73/73/73
f 73/73/73 74/74/74 75/75/75
f 75/75/75 74/74/74 76/76/76
f 76/76/76 74/74/74 77/77/77
f 74/74/74 78/78/78 77/77/77
f 77/77/77 78/78/78 79/79/79
f 79/79/79 78/78/78 80/80/80
f 78/78/78 81/81/81 80/80/80
f 80/80/80 81/81/81 82/82/82
f 74/74/74 72/72/72 78/78/78
f 78/78/78 72/72/72 2/2/2
f 72/72/72 4/4/4 2/2/2
f 78/78/78 2/2/2 81/81/81
f 2/2/2 1/1/1 81/81/81
f 83/1/83 84/3/84 85/2/85
f 84/3/84 86/4/86 85/2/85
f 85/2/85 86/4/86 87/83/87
f 83/1/83 88/6/88 84/3/84
f 84/3/84 88/6/88 89/5/89
f 88/6/88 90/7/90 89/5/89
f 89/5/89 90/7/90 91/8/91
f 90/7/90 92/9/92 91/8/91
f 91/8/91 92/9/92 93/10/93
f 92/9/92 94/11/94 93/10/93
f 93/10/93 94/11/94 95/12/95
f 94/11/94 96/13/96 95/12/95
f 95/12/95 96/13/96 97/14/97
f 96/13/96 98/15/98 97/14/97
f 97/14/97 98/15/98 99/16/99
f 98/15/98 100/17/100 99/16/99
f 99/16/99 100/17/100 101/18/101
f 100/17/100 102/19/102 101/18/101
f 101/18/101 102/19/102 103/20/103
f 102/19/102 104/21/104 103/20/103
f 104/21/104 105/22/105 103/20/103
f 103/20/103 105/22/105 106/23/106
f 105/22/105 107/24/107 106/23/106
f 106/23/106 107/24/107 108/25/108
f 107/24/107 109/26/109 108/25/108
f 109/26/109 110/27/110 108/25/108
f 108/25/108 110/27/110 111/28/111
f 110/27/110 112/29/112 111/28/111
f 111/28/111 112/29/112 113/30/113
f 112/29/112 114/31/114 113/30/113
f 114/31/114 115/32/115 113/30/113
f 113/30/113 115/32/115 116/33/116
f 115/32/115 117/34/117 116/33/116
f 117/34/117 118/35/118 116/33/116
f 116/33/116 118/35/118 119/36/119
f 118/35/118 120/37/120 119/36/119
f 119/36/119 120/37/120 121/84/121
f 120/37/120 122/39/122 121/84/121
f 122/39/122 123/40/123 121/84/121
f 123/40/123 124/42/124 121/84/121
f 121/84/121 124/42/124 125/85/125
f 124/42/124 126/44/126 125/85/125
f 125/85/125 126/44/126 127/86/127
f 126/44/126 128/51/128 127/86/127
f 89/5/89 86/4/86 84/3/84
f 108/25/108 111/28/111 106/23/106
f 106/23/106 111/28/111 129/45/129
f 111/28/111 113/30/113 129/45/129
f 129/45/129 113/30/113 119/36/119
f 113/30/113 116/33/116 119/36/119
f 121/84/121 125/85/125 119/36/119
f 119/36/119 125/85/125 129/45/129
f 125/85/125 127/86/127 129/45/129
f 129/45/129 127/86/127 130/46/130
f 130/46/130 127/86/127 131/87/131
f 127/86/127 128/51/128 131/87/131
f 131/87/131 128/51/128 132/88/132
f 128/51/128 133/53/133 132/88/132
f 133/53/133 134/54/134 132/88/132
f 132/88/132 134/54/134 135/56/135
f 134/54/134 136/55/136 135/56/135
f 136/55/136 137/57/137 135/56/135
f 135/56/135 137/57/137 138/58/138
f 137/57/137 139/89/139 138/58/138
f 138/58/138 139/89/139 140/90/140
f 139/89/139 141/61/141 140/90/140
f 141/61/141 142/63/142 140/90/140
f 140/90/140 142/63/142 143/91/143
f 142/63/142 144/68/144 143/91/143
f 144/68/144 145/70/145 143/91/143
f 143/91/143 145/70/145 146/92/146
f 145/70/145 147/73/147 146/92/146
f 146/92/146 147/73/147 87/83/87
f 87/83/87 147/73/147 148/74/148
f 147/73/147 149/75/149 148/74/148
f 149/75/149 150/76/150 148/74/148
f 148/74/148 150/76/150 151/78/151
f 150/76/150 152/77/152 151/78/151
f 152/77/152 153/79/153 151/78/151
f 153/79/153 154/80/154 151/78/151
f 151/78/151 154/80/154 155/81/155
f 154/80/154 156/82/156 155/81/155
f 129/45/129 130/46/130 106/23/106
f 130/46/130 103/20/103 106/23/106
f 137/57/137 157/60/157 139/89/139
f 157/60/157 141/61/141 139/89/139
f 83/1/83 85/2/85 155/81/155
f 155/81/155 85/2/85 151/78/151
f 151/78/151 85/2/85 148/74/148
f 85/2/85 87/83/87 148/74/148
f 87/83/87 86/4/86 146/92/146
f 86/4/86 158/65/158 146/92/146
f 146/92/146 158/65/158 143/91/143
f 158/65/158 159/66/159 143/91/143
f 143/91/143 159/66/159 140/90/140
f 140/90/140 159/66/159 138/58/138
f 159/66/159 160/64/160 138/58/138
f 138/58/138 160/64/160 135/56/135
f 160/64/160 161/49/161 135/56/135
f 135/56/135 161/49/161 132/88/132
f 132/88/132 161/49/161 131/87/131
f 131/87/131 161/49/161 130/46/130
f 161/49/161 162/47/162 130/46/130
f 130/46/130 162/47/162 103/20/103
f 103/20/103 162/47/162 101/18/101
f 101/18/101 162/47/162 163/48/163
f 162/47/162 161/49/161 163/48/163
f 161/49/161 160/64/160 163/48/163
f 163/48/163 160/64/160 158/65/158
f 160/64/160 159/66/159 158/65/158
f 163/48/163 158/65/158 164/71/164
f 158/65/158 86/4/86 164/71/164
f 86/4/86 89/5/89 164/71/164
f 89/5/89 91/8/91 164/71/164
f 91/8/91 93/10/93 164/71/164
f 93/10/93 95/12/95 164/71/164
f 95/12/95 97/14/97 164/71/164
f 97/14/97 99/16/99 164/71/164
f 164/71/164 99/16/99 163/48/163
f 99/16/99 101/18/101 163/48/163
f 165/93/165 166/94/166 167/95/167
f 167/95/167 166/94/166 168/96/168
f 168/96/168 166/94/166 169/97/169
f 169/97/169 166/94/166 170/98/170
f 170/98/170 166/94/166 171/99/171
f 171/99/171 166/94/166 172/100/172
f 172/100/172 166/94/166 173/101/173
f 173/101/173 166/94/166 174/102/174
f 174/102/174 166/94/166 175/103/175
f 175/103/175 166/94/166 176/104/176
f 176/104/176 166/94/166 177/105/177
f 177/105/177 166/94/166 178/106/178
f 178/106/178 166/94/166 179/107/179
f 179/107/179 166/94/166 180/108/180
f 180/108/180 166/94/166 181/109/181
f 181/109/181 166/94/166 182/110/182
f 182/110/182 166/94/166 183/111/183
f 183/111/183 166/94/166 184/112/184
f 184/112/184 166/94/166 185/113/185
f 166/94/166 165/93/165 185/113/185
f 186/114/186 187/115/187 188/116/188
f 188/116/188 187/115/187 189/117/189
f 189/117/189 187/115/187 190/118/190
f 190/118/190 187/115/187 191/119/191
f 191/119/191 187/115/187 192/120/192
f 192/120/192 187/115/187 193/121/193
f 193/121/193 187/115/187 194/122/194
f 187/115/187 195/123/195 194/122/194
f 186/114/186 196/124/196 187/115/187
f 196/124/196 197/125/197 187/115/187
f 197/125/197 198/126/198 187/115/187
f 198/126/198 199/127/199 187/115/187
f 199/127/199 200/128/200 187/115/187
f 200/128/200 201/129/201 187/115/187
f 201/129/201 202/130/202 187/115/187
f 202/130/202 203/131/203 187/115/187
f 203/131/203 204/132/204 187/115/187
f 204/132/204 205/133/205 187/115/187
f 205/133/205 206/134/206 187/115/187
f 187/115/187 206/134/206 195/123/195
f 207/93/188 209/95/186 208/94/187
f 209/95/186 210/96/196 208/94/187
f 210/96/196 211/97/197 208/94/187
f 211/97/197 212/98/198 208/94/187
f 212/98/198 213/99/199 208/94/187
f 213/99/199 214/100/200 208/94/187
f 214/100/200 215/101/201 208/94/187
f 215/101/201 216/102/202 208/94/187
f 216/102/202 217/103/203 208/94/187
f 217/103/203 218/104/204 208/94/187
f 218/104/204 219/105/205 208/94/187
f 219/105/205 220/106/206 208/94/187
f 220/106/206 221/107/195 208/94/187
f 221/107/195 222/108/194 208/94/187
f 222/108/194 223/109/193 208/94/187
f 223/109/193 224/110/192 208/94/187
f 224/110/192 225/111/191 208/94/187
f 225/111/191 226/112/190 208/94/187
f 226/112/190 227/113/189 208/94/187
f 208/94/187 227/113/189 207/93/188
f 228/116/165 230/115/166 229/114/167
f 229/114/167 230/115/166 231/124/168
f 231/124/168 230/115/166 232/125/169
f 232/125/169 230/115/166 233/126/170
f 233/126/170 230/115/166 234/127/171
f 234/127/171 230/115/166 235/128/172
f 235/128/172 230/115/166 236/129/173
f 230/115/166 237/130/174 236/129/173
f 228/116/165 238/117/185 230/115/166
f 238/117/185 239/118/184 230/115/166
f 239/118/184 240/119/183 230/115/166
f 240/119/183 241/120/182 230/115/166
f 241/120/182 242/121/181 230/115/166
f 242/121/181 243/122/180 230/115/166
f 243/122/180 244/123/179 230/115/166
f 244/123/179 245/134/178 230/115/166
f 245/134/178 246/133/177 230/115/166
f 246/133/177 247/132/176 230/115/166
f 247/132/176 248/131/175 230/115/166
f 230/115/166 248/131/175 237/130/174
f 249/93/165 251/94/166 250/95/167
f 250/95/167 251/94/166 252/96/168
f 252/96/168 251/94/166 253/97/169
f 253/97/169 251/94/166 254/98/170
f 254/98/170 251/94/166 255/99/207
f 255/99/207 251/94/166 256/100/172
f 256/100/172 251/94/166 257/101/173
f 257/101/173 251/94/166 258/102/174
f 258/102/174 251/94/166 259/103/208
f 259/103/208 251/94/166 260/104/176
f 260/104/176 251/94/166 261/105/209
f 261/105/209 251/94/166 262/106/178
f 262/106/178 251/94/166 263/107/179
f 263/107/179 251/94/166 264/108/180
f 264/108/180 251/94/166 265/109/181
f 265/109/181 251/94/166 266/110/182
f 266/110/182 251/94/166 267/111/183
f 267/111/183 251/94/166 268/112/184
f 268/112/184 251/94/166 269/113/185
f 251/94/166 249/93/165 269/113/185
f 270/114/186 271/115/187 272/116/188
f 272/116/188 271/115/187 273/117/189
f 273/117/189 271/115/187 274/118/190
f 274/118/190 271/115/187 275/119/191
f 275/119/191 271/115/187 276/120/192
f 276/120/192 271/115/187 277/121/193
f 277/121/193 271/115/187 278/122/194
f 271/115/187 279/123/195 278/122/194
f 270/114/186 280/124/196 271/115/187
f 280/124/196 281/125/197 271/115/187
f 281/125/197 282/126/198 271/115/187
f 282/126/198 283/127/199 271/115/187
f 283/127/199 284/128/200 271/115/187
f 284/128/200 285/129/201 271/115/187
f 285/129/201 286/130/202 271/115/187
f 286/130/202 287/131/210 271/115/187
f 287/131/210 288/132/204 271/115/187
f 288/132/204 289/133/211 271/115/187
f 289/133/211 290/134/206 271/115/187
f 271/115/187 290/134/206 279/123/195
f 291/93/188 293/95/186 292/94/187
f 293/95/186 294/96/196 292/94/187
f 294/96/196 295/97/197 292/94/187
f 295/97/197 296/98/198 292/94/187
f 296/98/198 297/99/199 292/94/187
f 297/99/199 298/100/200 292/94/187
f 298/100/200 299/101/201 292/94/187
f 299/101/201 300/102/202 292/94/187
f 300/102/202 301/103/210 292/94/187
f 301/103/210 302/104/204 292/94/187
f 302/104/204 303/105/211 292/94/187
f 303/105/211 304/106/206 292/94/187
f 304/106/206 305/107/195 292/94/187
f 305/107/195 306/108/194 292/94/187
f 306/108/194 307/109/193 292/94/187
f 307/109/193 308/110/192 292/94/187
f 308/110/192 309/111/191 292/94/187
f 309/111/191 310/112/190 292/94/187
f 310/112/190 311/113/189 292/94/187
f 292/94/187 311/113/189 291/93/188
f 312/116/165 314/115/166 313/114/167
f 313/114/167 314/115/166 315/124/168
f 315/124/168 314/115/166 316/125/169
f 316/125/169 314/115/166 317/126/170
f 317/126/170 314/115/166 318/127/207
f 318/127/207 314/115/166 319/128/172
f 319/128/172 314/115/166 320/129/173
f 314/115/166 321/130/174 320/129/173
f 312/116/165 322/117/185 314/115/166
f 322/117/185 323/118/184 314/115/166
f 323/118/184 324/119/183 314/115/166
f 324/119/183 325/120/182 314/115/166
f 325/120/182 326/121/181 314/115/166
f 326/121/181 327/122/180 314/115/166
f 327/122/180 328/123/179 314/115/166
f 328/123/179 329/134/178 314/115/166
f 329/134/178 330/133/209 314/115/166
f 330/133/209 331/132/176 314/115/166
f 331/132/176 332/131/208 314/115/166
f 314/115/166 332/131/208 321/130/174
f 333/135/212 335/136/213 334/137/6
f 334/137/6 335/136/213 336/138/214
f 336/138/214 335/136/213 337/139/215
f 337/139/215 335/136/213 338/140/216
f 338/140/216 335/136/213 339/141/217
f 335/136/213 340/142/9 339/141/217
f 339/141/217 340/142/9 341/143/218
f 340/142/9 342/144/11 341/143/218
f 341/143/218 342/144/11 343/145/219
f 342/144/11 344/146/220 343/145/219
f 343/145/219 344/146/220 345/147/221
f 344/146/220 346/148/222 345/147/221
f 346/148/222 347/149/17 345/147/221
f 347/149/17 348/150/223 345/147/221
f 348/150/223 349/151/224 345/147/221
f 345/147/221 349/151/224 350/152/225
f 350/152/225 349/151/224 351/147/226
f 349/151/224 352/150/227 351/147/226
f 352/150/227 353/149/100 351/147/226
f 353/149/100 354/148/228 351/147/226
f 354/148/228 355/146/96 351/147/226
f 351/147/226 355/146/96 356/145/229
f 355/146/96 357/144/94 356/145/229
f 356/145/229 357/144/94 358/143/230
f 357/144/94 359/142/231 358/143/230
f 358/143/230 359/142/231 360/141/232
f 360/141/232 359/142/231 361/136/233
f 359/142/231 362/135/90 361/136/233
f 362/135/90 363/137/88 361/136/233
f 361/136/233 363/137/88 364/138/234
f 363/137/88 365/153/83 364/138/234
f 364/138/234 365/153/83 366/154/235
f 366/154/235 365/153/83 367/155/236
f 365/153/83 368/156/155 367/155/236
f 368/156/155 369/157/156 367/155/236
f 367/155/236 369/157/156 370/158/237
f 369/157/156 371/159/238 370/158/237
f 370/158/237 371/159/238 372/160/239
f 371/159/238 373/161/240 372/160/239
f 373/161/240 374/162/241 372/160/239
f 374/162/241 375/163/242 372/160/239
f 372/160/239 375/163/242 376/164/243
f 376/164/243 375/163/242 377/165/244
f 375/163/242 378/166/245 377/165/244
f 377/165/244 378/166/245 379/167/246
f 379/167/246 378/166/245 380/168/247
f 378/166/245 381/169/248 380/168/247
f 381/169/248 382/166/249 380/168/247
f 380/168/247 382/166/249 383/167/250
f 383/167/250 382/166/249 384/165/251
f 382/166/249 385/163/252 384/165/251
f 384/165/251 385/163/252 386/164/253
f 386/164/253 385/163/252 387/160/254
f 385/163/252 388/162/255 387/160/254
f 388/162/255 389/161/79 387/160/254
f 389/161/79 390/159/256 387/160/254
f 387/160/254 390/159/256 391/158/257
f 390/159/256 392/157/82 391/158/257
f 391/158/257 392/157/82 393/155/258
f 392/157/82 394/156/81 393/155/258
f 394/156/81 395/153/1 393/155/258
f 393/155/258 395/153/1 396/154/259
f 395/153/1 336/138/214 396/154/259
f 396/154/259 336/138/214 397/170/260
f 336/138/214 337/139/215 397/170/260
f 333/135/212 340/142/9 335/136/213
f 343/145/219 345/147/221 350/152/225
f 350/152/225 351/147/226 356/145/229
f 376/164/243 370/158/237 372/160/239
f 387/160/254 391/158/257 386/164/253
f 391/158/257 398/171/261 386/164/253
f 398/171/261 399/172/262 386/164/253
f 386/164/253 399/172/262 384/165/251
f 399/172/262 400/173/263 384/165/251
f 384/165/251 400/173/263 383/167/250
f 400/173/263 401/174/264 383/167/250
f 383/167/250 401/174/264 380/168/247
f 380/168/247 401/174/264 379/167/246
f 401/174/264 402/173/265 379/167/246
f 379/167/246 402/173/265 377/165/244
f 402/173/265 403/172/266 377/165/244
f 377/165/244 403/172/266 376/164/243
f 403/172/266 404/171/267 376/164/243
f 376/164/243 404/171/267 370/158/237
f 404/171/267 405/175/268 370/158/237
f 370/158/237 405/175/268 367/155/236
f 395/153/1 334/137/6 336/138/214
f 397/170/260 406/176/269 396/154/259
f 396/154/259 406/176/269 393/155/258
f 406/176/269 407/175/270 393/155/258
f 393/155/258 407/175/270 391/158/257
f 407/175/270 398/171/261 391/158/257
f 405/175/268 404/171/267 408/177/271
f 404/171/267 403/172/266 408/177/271
f 403/172/266 402/173/265 408/177/271
f 408/177/271 402/173/265 409/178/272
f 409/178/272 402/173/265 410/179/273
f 402/173/265 401/174/264 410/179/273
f 401/174/264 400/173/263 410/179/273
f 410/179/273 400/173/263 411/178/274
f 400/173/263 412/177/275 411/178/274
f 411/178/274 412/177/275 413/180/276
f 412/177/275 406/176/269 413/180/276
f 406/176/269 414/181/277 413/180/276
f 413/180/276 414/181/277 415/182/278
f 415/182/278 414/181/277 416/183/279
f 416/183/279 414/181/277 397/170/260
f 414/181/277 406/176/269 397/170/260
f 400/173/263 399/172/262 412/177/275
f 399/172/262 398/171/261 412/177/275
f 398/171/261 407/175/270 412/177/275
f 412/177/275 407/175/270 406/176/269
f 413/180/276 415/182/278 411/178/274
f 411/178/274 415/182/278 410/179/273
f 416/183/279 397/170/260 417/184/280
f 397/170/260 337/139/215 417/184/280
f 417/184/280 337/139/215 418/185/281
f 337/139/215 338/140/216 418/185/281
f 338/140/216 339/141/217 418/185/281
f 418/185/281 339/141/217 419/186/282
f 339/141/217 341/143/218 419/186/282
f 419/186/282 341/143/218 420/187/283
f 341/143/218 343/145/219 420/187/283
f 420/187/283 343/145/219 421/188/284
f 343/145/219 350/152/225 421/188/284
f 350/152/225 356/145/229 421/188/284
f 421/188/284 356/145/229 420/187/283
f 356/145/229 358/143/230 420/187/283
f 420/187/283 358/143/230 419/186/282
f 358/143/230 360/141/232 419/186/282
f 419/186/282 360/141/232 422/185/285
f 360/141/232 423/140/286 422/185/285
f 422/185/285 423/140/286 424/139/287
f 423/140/286 361/136/233 424/139/287
f 361/136/233 364/138/234 424/139/287
f 424/139/287 364/138/234 425/170/288
f 364/138/234 366/154/235 425/170/288
f 425/170/288 366/154/235 426/176/289
f 366/154/235 367/155/236 426/176/289
f 367/155/236 405/175/268 426/176/289
f 405/175/268 408/177/271 426/176/289
f 408/177/271 427/180/290 426/176/289
f 427/180/290 428/181/291 426/176/289
f 426/176/289 428/181/291 425/170/288
f 428/181/291 429/183/292 425/170/288
f 429/183/292 430/184/293 425/170/288
f 425/170/288 430/184/293 424/139/287
f 430/184/293 422/185/285 424/139/287
f 361/136/233 423/140/286 360/141/232
f 408/177/271 409/178/272 427/180/290
f 427/180/290 409/178/272 431/182/294
f 409/178/272 410/179/273 431/182/294
f 431/182/294 410/179/273 432/189/295
f 410/179/273 415/182/278 432/189/295
f 415/182/278 416/183/279 432/189/295
f 416/183/279 433/190/296 432/189/295
f 432/189/295 433/190/296 429/183/292
f 429/183/292 433/190/296 430/184/293
f 433/190/296 434/191/297 430/184/293
f 430/184/293 434/191/297 422/185/285
f 427/180/290 431/182/294 428/181/291
f 428/181/291 431/182/294 429/183/292
f 431/182/294 432/189/295 429/183/292
f 416/183/279 417/184/280 433/190/296
f 433/190/296 417/184/280 434/191/297
f 417/184/280 418/185/281 434/191/297
f 434/191/297 418/185/281 435/192/298
f 418/185/281 436/193/299 435/192/298
f 435/192/298 436/193/299 422/185/285
f 422/185/285 436/193/299 419/186/282
f 436/193/299 418/185/281 419/186/282
f 434/191/297 435/192/298 422/185/285
f 437/194/44 439/195/51 438/196/300
f 439/195/51 440/197/301 438/196/300
f 438/196/300 440/197/301 441/198/302
f 440/197/301 442/199/303 441/198/302
f 441/198/302 442/199/303 443/200/40
f 442/199/303 444/201/39 443/200/40
f 437/194/44 438/196/300 445/202/42
f 438/196/300 441/198/302 445/202/42
f 445/202/42 441/198/302 443/200/40
f 439/195/51 446/203/53 440/197/301
f 440/197/301 446/203/53 447/204/304
f 446/203/53 448/205/305 447/204/304
f 447/204/304 448/205/305 449/206/306
f 448/205/305 450/207/55 449/206/306
f 440/197/301 447/204/304 442/199/303
f 447/204/304 449/206/306 442/199/303
f 449/206/306 451/208/307 442/199/303
f 442/199/303 451/208/307 444/201/39
f 451/208/307 452/209/308 444/201/39
f 444/201/39 452/209/308 453/210/37
f 453/210/37 452/209/308 454/211/35
f 452/209/308 455/212/309 454/211/35
f 454/211/35 455/212/309 456/213/310
f 455/212/309 452/209/308 457/214/311
f 457/214/311 452/209/308 458/215/312
f 458/215/312 452/209/308 459/216/313
f 452/209/308 451/208/307 459/216/313
f 459/216/313 451/208/307 460/217/314
f 451/208/307 449/206/306 460/217/314
f 460/217/314 449/206/306 461/218/315
f 461/218/315 449/206/306 462/219/316
f 449/206/306 450/207/55 462/219/316
f 450/207/55 463/220/57 462/219/316
f 463/220/57 464/221/60 462/219/316
f 462/219/316 464/221/60 465/222/317
f 464/221/60 466/223/61 465/222/317
f 465/222/317 466/223/61 467/224/318
f 466/223/61 468/225/319 467/224/318
f 467/224/318 468/225/319 469/226/320
f 468/225/319 470/227/68 469/226/320
f 470/227/68 471/228/321 469/226/320
f 469/226/320 471/228/321 472/229/322
f 471/228/321 473/230/323 472/229/322
f 472/229/322 473/230/323 474/231/324
f 473/230/323 475/232/75 474/231/324
f 474/231/324 475/232/75 476/233/325
f 475/232/75 477/234/76 476/233/325
f 477/234/76 478/235/326 476/233/325
f 476/233/325 478/235/326 465/222/317
f 465/222/317 478/235/326 462/219/316
f 478/235/326 479/236/327 462/219/316
f 462/219/316 479/236/327 461/218/315
f 472/229/322 474/231/324 469/226/320
f 469/226/320 474/231/324 467/224/318
f 467/224/318 474/231/324 465/222/317
f 474/231/324 476/233/325 465/222/317
f 477/234/76 480/237/328 478/235/326
f 480/237/328 481/238/329 478/235/326
f 478/235/326 481/238/329 479/236/327
f 477/234/76 482/239/77 480/237/328
f 482/239/77 483/240/79 480/237/328
f 483/240/79 484/241/330 480/237/328
f 484/241/330 485/242/252 480/237/328
f 485/242/252 486/243/331 480/237/328
f 486/243/331 487/244/248 480/237/328
f 480/237/328 487/244/248 481/238/329
f 481/238/329 487/244/248 488/237/332
f 487/244/248 489/243/245 488/237/332
f 489/243/245 490/242/242 488/237/332
f 490/242/242 491/241/241 488/237/332
f 491/241/241 492/240/153 488/237/332
f 492/240/153 493/239/333 488/237/332
f 493/239/333 494/234/334 488/237/332
f 494/234/334 495/235/335 488/237/332
f 488/237/332 495/235/335 481/238/329
f 481/238/329 495/235/335 479/236/327
f 495/235/335 496/219/336 479/236/327
f 479/236/327 496/219/336 461/218/315
f 496/219/336 497/206/337 461/218/315
f 461/218/315 497/206/337 460/217/314
f 497/206/337 498/208/338 460/217/314
f 460/217/314 498/208/338 459/216/313
f 498/208/338 499/209/339 459/216/313
f 459/216/313 499/209/339 458/215/312
f 458/215/312 499/209/339 457/214/311
f 457/214/311 499/209/339 500/212/340
f 499/209/339 501/211/118 500/212/340
f 500/212/340 501/211/118 502/213/341
f 501/211/118 499/209/339 503/210/120
f 503/210/120 499/209/339 504/201/122
f 499/209/339 498/208/338 504/201/122
f 504/201/122 498/208/338 505/199/342
f 498/208/338 497/206/337 505/199/342
f 504/201/122 505/199/342 506/200/343
f 505/199/342 507/198/344 506/200/343
f 506/200/343 507/198/344 508/202/124
f 507/198/344 509/196/345 508/202/124
f 508/202/124 509/196/345 510/194/126
f 510/194/126 509/196/345 511/195/128
f 509/196/345 512/197/346 511/195/128
f 511/195/128 512/197/346 513/203/347
f 512/197/346 514/204/348 513/203/347
f 513/203/347 514/204/348 515/205/349
f 514/204/348 497/206/337 515/205/349
f 515/205/349 497/206/337 516/207/136
f 497/206/337 496/219/336 516/207/136
f 516/207/136 496/219/336 517/220/137
f 517/220/137 496/219/336 518/221/157
f 496/219/336 519/222/350 518/221/157
f 518/221/157 519/222/350 520/223/351
f 519/222/350 521/224/352 520/223/351
f 520/223/351 521/224/352 522/225/142
f 521/224/352 523/226/353 522/225/142
f 522/225/142 523/226/353 524/227/354
f 524/227/354 523/226/353 525/228/145
f 523/226/353 526/229/355 525/228/145
f 525/228/145 526/229/355 527/230/356
f 527/230/356 526/229/355 528/231/357
f 526/229/355 523/226/353 528/231/357
f 523/226/353 521/224/352 528/231/357
f 521/224/352 519/222/350 528/231/357
f 519/222/350 529/233/358 528/231/357
f 529/233/358 530/232/149 528/231/357
f 528/231/357 530/232/149 527/230/356
f 509/196/345 507/198/344 512/197/346
f 507/198/344 505/199/342 512/197/346
f 512/197/346 505/199/342 514/204/348
f 505/199/342 497/206/337 514/204/348
f 496/219/336 495/235/335 519/222/350
f 519/222/350 495/235/335 529/233/358
f 495/235/335 494/234/334 529/233/358
f 529/233/358 494/234/334 530/232/149
f 531/245/359 533/246/360 532/247/361
f 533/246/360 534/248/362 532/247/361
f 532/247/361 534/248/362 535/249/363
f 534/248/362 536/250/364 535/249/363
f 531/245/359 532/247/361 537/251/365
f 537/251/365 532/247/361 538/252/366
f 538/252/366 532/247/361 539/253/367
f 532/247/361 540/254/368 539/253/367
f 539/253/367 540/254/368 541/255/369
f 541/255/369 540/254/368 542/256/370
f 542/256/370 540/254/368 543/257/371
f 540/254/368 532/247/361 543/257/371
f 532/247/361 535/249/363 543/257/371
f 543/257/371 535/249/363 544/258/372
f 535/249/363 545/259/373 544/258/372
f 544/258/372 545/259/373 546/260/374
f 545/259/373 547/261/375 546/260/374
f 547/261/375 548/262/376 546/260/374
f 548/262/376 549/263/377 546/260/374
f 549/263/377 550/264/378 546/260/374
f 546/260/374 550/264/378 544/258/372
f 544/258/372 550/264/378 543/257/371
f 550/264/378 551/265/379 543/257/371
f 543/257/371 551/265/379 542/256/370
f 551/265/379 552/266/380 542/256/370
f 542/256/370 552/266/380 553/267/381
f 535/249/363 536/250/364 545/259/373
f 545/259/373 536/250/364 554/268/382
f 554/268/382 536/250/364 555/269/383
f 536/250/364 556/270/384 555/269/383
f 555/269/383 556/270/384 557/271/385
f 557/271/385 556/270/384 558/272/386
f 556/270/384 559/273/387 558/272/386
f 558/272/386 559/273/387 560/274/388
f 559/273/387 561/275/389 560/274/388
f 560/274/388 561/275/389 562/276/390
f 554/268/382 547/261/375 545/259/373
f 550/264/378 549/263/377 551/265/379
f 549/263/377 552/266/380 551/265/379
f 556/270/384 536/250/364 559/273/387
f 536/250/364 534/248/362 559/273/387
f 559/273/387 534/248/362 563/277/391
f 534/248/362 533/246/360 563/277/391
f 563/277/391 561/275/389 559/273/387
f 564/258/392 566/259/393 565/249/394
f 566/259/393 567/250/395 565/249/394
f 567/250/395 568/248/396 565/249/394
f 568/248/396 569/247/397 565/249/394
f 569/247/397 570/257/398 565/249/394
f 565/249/394 570/257/398 564/258/392
f 570/257/398 571/264/399 564/258/392
f 571/264/399 572/260/400 564/258/392
f 564/258/392 572/260/400 566/259/393
f 572/260/400 573/261/401 566/259/393
f 573/261/401 574/268/402 566/259/393
f 566/259/393 574/268/402 567/250/395
f 574/268/402 575/269/403 567/250/395
f 567/250/395 575/269/403 576/270/404
f 575/269/403 577/271/405 576/270/404
f 577/271/405 578/272/406 576/270/404
f 578/272/406 579/273/407 576/270/404
f 576/270/404 579/273/407 567/250/395
f 567/250/395 579/273/407 568/248/396
f 579/273/407 580/277/408 568/248/396
f 580/277/408 581/246/409 568/248/396
f 568/248/396 581/246/409 569/247/397
f 581/246/409 582/245/410 569/247/397
f 582/245/410 583/251/411 569/247/397
f 583/251/411 584/252/412 569/247/397
f 584/252/412 585/253/413 569/247/397
f 569/247/397 585/253/413 586/254/414
f 585/253/413 587/255/415 586/254/414
f 587/255/415 588/256/416 586/254/414
f 586/254/414 588/256/416 570/257/398
f 588/256/416 589/265/417 570/257/398
f 570/257/398 589/265/417 571/264/399
f 589/265/417 590/263/418 571/264/399
f 571/264/399 590/263/418 572/260/400
f 590/263/418 591/262/419 572/260/400
f 572/260/400 591/262/419 573/261/401
f 586/254/414 570/257/398 569/247/397
f 592/267/420 593/266/421 588/256/416
f 588/256/416 593/266/421 589/265/417
f 593/266/421 590/263/418 589/265/417
f 594/278/370 595/279/381 596/280/422
f 595/279/381 597/281/423 596/280/422
f 596/280/422 597/281/423 598/282/367
f 597/281/423 599/283/424 598/282/367
f 598/282/367 599/283/424 600/284/425
f 599/283/424 601/285/426 600/284/425
f 600/284/425 601/285/426 602/286/427
f 601/285/426 603/287/428 602/286/427
f 603/287/428 604/288/429 602/286/427
f 602/286/427 604/288/429 605/289/359
f 604/288/429 606/290/430 605/289/359
f 605/289/359 606/290/430 607/291/360
f 606/290/430 608/292/431 607/291/360
f 607/291/360 608/292/431 609/293/391
f 608/292/431 610/294/432 609/293/391
f 609/293/391 610/294/432 611/295/433
f 610/294/432 612/296/434 611/295/433
f 611/295/433 612/296/434 613/297/390
f 614/278/416 616/280/415 615/279/420
f 615/279/420 616/280/415 617/281/435
f 616/280/415 618/282/413 617/281/435
f 617/281/435 618/282/413 619/283/436
f 618/282/413 620/284/412 619/283/436
f 619/283/436 620/284/412 621/285/437
f 620/284/412 622/286/411 621/285/437
f 621/285/437 622/286/411 623/287/438
f 623/287/438 622/286/411 624/288/439
f 622/286/411 625/289/410 624/288/439
f 624/288/439 625/289/410 626/290/440
f 625/289/410 627/291/409 626/290/440
f 626/290/440 627/291/409 628/292/441
f 627/291/409 629/293/442 628/292/441
f 628/292/441 629/293/442 630/294/443
f 629/293/442 631/295/444 630/294/443
f 630/294/443 631/295/444 632/296/445
f 631/295/444 633/297/446 632/296/445
f 578/272/406 634/274/447 579/273/407
f 634/274/447 635/275/444 579/273/407
f 579/273/407 635/275/444 580/277/408
f 634/274/447 636/276/446 635/275/444
f 637/298/448 638/299/449 639/300/186
f 638/299/449 640/301/168 639/300/186
f 639/300/186 640/301/168 641/302/196
f 640/301/168 642/303/450 641/302/196
f 641/302/196 642/303/450 643/304/451
f 642/303/450 644/305/170 643/304/451
f 643/304/451 644/305/170 645/306/198
f 644/305/170 646/307/105 645/306/198
f 645/306/198 646/307/105 647/308/199
f 646/307/105 648/309/172 647/308/199
f 647/308/199 648/309/172 649/310/200
f 648/309/172 650/311/452 649/310/200
f 649/310/200 650/311/452 651/312/453
f 650/311/452 652/313/174 651/312/453
f 651/312/453 652/313/174 653/314/454
f 652/313/174 654/315/208 653/314/454
f 653/314/454 654/315/208 655/316/210
f 654/315/208 656/317/455 655/316/210
f 655/316/210 656/317/455 657/318/456
f 656/317/455 658/319/177 657/318/456
f 657/318/456 658/319/177 659/320/457
f 658/319/177 660/321/178 659/320/457
f 659/320/457 660/321/178 661/322/206
f 638/299/449 637/298/448 662/323/458
f 637/298/448 663/324/459 662/323/458
f 662/323/458 663/324/459 664/325/185
f 663/324/459 665/326/190 664/325/185
f 664/325/185 665/326/190 666/327/184
f 665/326/190 667/328/191 666/327/184
f 666/327/184 667/328/191 668/329/183
f 667/328/191 669/330/192 668/329/183
f 668/329/183 669/330/192 670/331/460
f 669/330/192 671/332/193 670/331/460
f 670/331/460 671/332/193 672/333/181
f 671/332/193 673/334/194 672/333/181
f 672/333/181 673/334/194 674/335/180
f 673/334/194 675/336/195 674/335/180
f 674/335/180 675/336/195 676/337/461
f 675/336/195 677/338/206 676/337/461
f 676/337/461 677/338/206 678/339/178
f 679/298/458 681/300/449 680/299/186
f 680/299/186 681/300/449 682/301/462
f 681/300/449 683/302/168 682/301/462
f 682/301/462 683/302/168 684/303/197
f 683/302/168 685/304/450 684/303/197
f 684/303/197 685/304/450 686/305/198
f 685/304/450 687/306/170 686/305/198
f 686/305/198 687/306/170 688/307/199
f 687/306/170 689/308/105 688/307/199
f 688/307/199 689/308/105 690/309/200
f 689/308/105 691/310/172 690/309/200
f 690/309/200 691/310/172 692/311/201
f 691/310/172 693/312/452 692/311/201
f 692/311/201 693/312/452 694/313/202
f 693/312/452 695/314/174 694/313/202
f 694/313/202 695/314/174 696/315/203
f 695/314/174 697/316/208 696/315/203
f 696/315/203 697/316/208 698/317/456
f 697/316/208 699/318/455 698/317/456
f 698/317/456 699/318/455 700/319/463
f 699/318/455 701/320/177 700/319/463
f 700/319/463 701/320/177 702/321/206
f 701/320/177 703/322/178 702/321/206
f 680/299/186 704/323/448 679/298/458
f 679/298/458 704/323/448 705/324/185
f 704/323/448 706/325/459 705/324/185
f 705/324/185 706/325/459 707/326/184
f 706/325/459 708/327/190 707/326/184
f 707/326/184 708/327/190 709/328/464
f 708/327/190 710/329/191 709/328/464
f 709/328/464 710/329/191 711/330/460
f 710/329/191 712/331/192 711/330/460
f 711/330/460 712/331/192 713/332/181
f 712/331/192 714/333/193 713/332/181
f 713/332/181 714/333/193 715/334/465
f 714/333/193 716/335/466 715/334/465
f 715/334/465 716/335/466 717/336/467
f 716/335/466 718/337/195 717/336/467
f 717/336/467 718/337/195 719/338/178
f 718/337/195 720/339/206 719/338/178
f 721/298/448 722/299/449 723/300/468
f 722/299/449 724/301/168 723/300/468
f 723/300/468 724/301/168 725/302/196
f 724/301/168 726/303/450 725/302/196
f 725/302/196 726/303/450 727/304/451
f 726/303/450 728/305/170 727/304/451
f 727/304/451 728/305/170 729/306/198
f 728/305/170 730/307/207 729/306/198
f 729/306/198 730/307/207 731/308/199
f 730/307/207 732/309/172 731/308/199
f 731/308/199 732/309/172 733/310/200
f 732/309/172 734/311/173 733/310/200
f 733/310/200 734/311/173 735/312/201
f 734/311/173 736/313/174 735/312/201
f 735/312/201 736/313/174 737/314/202
f 736/313/174 738/315/208 737/314/202
f 737/314/202 738/315/208 739/316/210
f 738/315/208 740/317/455 739/316/210
f 739/316/210 740/317/455 741/318/456
f 740/317/455 742/319/469 741/318/456
f 741/318/456 742/319/469 743/320/211
f 742/319/469 744/321/178 743/320/211
f 743/320/211 744/321/178 745/322/206
f 722/299/449 721/298/448 746/323/458
f 721/298/448 747/324/459 746/323/458
f 746/323/458 747/324/459 748/325/185
f 747/324/459 749/326/190 748/325/185
f 748/325/185 749/326/190 750/327/184
f 749/326/190 751/328/191 750/327/184
f 750/327/184 751/328/191 752/329/183
f 751/328/191 753/330/192 752/329/183
f 752/329/183 753/330/192 754/331/460
f 753/330/192 755/332/193 754/331/460
f 754/331/460 755/332/193 756/333/181
f 755/332/193 757/334/194 756/333/181
f 756/333/181 757/334/194 758/335/180
f 757/334/194 759/336/195 758/335/180
f 758/335/180 759/336/195 760/337/467
f 759/336/195 761/338/206 760/337/467
f 760/337/467 761/338/206 762/339/178
f 763/298/458 765/300/449 764/299/468
f 764/299/468 765/300/449 766/301/470
f 765/300/449 767/302/471 766/301/470
f 766/301/470 767/302/471 768/303/197
f 767/302/471 769/304/450 768/303/197
f 768/303/197 769/304/450 770/305/198
f 769/304/450 771/306/170 770/305/198
f 770/305/198 771/306/170 772/307/199
f 771/306/170 773/308/207 772/307/199
f 772/307/199 773/308/207 774/309/200
f 773/308/207 775/310/172 774/309/200
f 774/309/200 775/310/172 776/311/201
f 775/310/172 777/312/173 776/311/201
f 776/311/201 777/312/173 778/313/202
f 777/312/173 779/314/174 778/313/202
f 778/313/202 779/314/174 780/315/210
f 779/314/174 781/316/208 780/315/210
f 780/315/210 781/316/208 782/317/456
f 781/316/208 783/318/455 782/317/456
f 782/317/456 783/318/455 784/319/211
f 783/318/455 785/320/469 784/319/211
f 784/319/211 785/320/469 786/321/206
f 785/320/469 787/322/178 786/321/206
f 764/299/468 788/323/448 763/298/458
f 763/298/458 788/323/448 789/324/185
f 788/323/448 790/325/459 789/324/185
f 789/324/185 790/325/459 791/326/184
f 790/325/459 792/327/190 791/326/184
f 791/326/184 792/327/190 793/328/464
f 792/327/190 794/329/191 793/328/464
f 793/328/464 794/329/191 795/330/460
f 794/329/191 796/331/192 795/330/460
f 795/330/460 796/331/192 797/332/181
f 796/331/192 798/333/193 797/332/181
f 797/332/181 798/333/193 799/334/472
f 798/333/193 800/335/194 799/334/472
f 799/334/472 800/335/194 801/336/467
f 800/335/194 802/337/195 801/336/467
f 801/336/467 802/337/195 803/338/178
f 802/337/195 804/339/206 803/338/178
f 805/340/473 806/341/474 807/342/24
f 806/341/474 808/343/475 807/342/24
f 807/342/24 808/343/475 809/344/22
f 808/343/475 810/345/476 809/344/22
f 809/344/22 810/345/476 811/346/21
f 811/346/21 810/345/476 812/347/477
f 810/345/476 813/348/478 812/347/477
f 812/347/477 813/348/478 814/349/17
f 814/349/17 813/348/478 815/350/479
f 813/348/478 816/351/480 815/350/479
f 815/350/479 816/351/480 817/352/481
f 817/352/481 816/351/480 818/350/227
f 816/351/480 819/348/482 818/350/227
f 818/350/227 819/348/482 820/349/100
f 820/349/100 819/348/482 821/347/483
f 819/348/482 822/345/484 821/347/483
f 821/347/483 822/345/484 823/346/104
f 823/346/104 822/345/484 824/344/105
f 822/345/484 825/343/485 824/344/105
f 824/344/105 825/343/485 826/342/486
f 825/343/485 827/341/487 826/342/486
f 826/342/486 827/341/487 828/340/488
f 828/340/488 827/341/487 829/353/489
f 827/341/487 830/354/490 829/353/489
f 829/353/489 830/354/490 831/355/491
f 831/355/491 830/354/490 832/356/492
f 830/354/490 833/357/493 832/356/492
f 833/357/493 834/354/494 832/356/492
f 832/356/492 834/354/494 835/355/495
f 835/355/495 834/354/494 836/353/496
f 834/354/494 806/341/474 836/353/496
f 836/353/496 806/341/474 805/340/473
f 810/345/476 808/343/475 837/358/497
f 808/343/475 806/341/474 837/358/497
f 806/341/474 834/354/494 837/358/497
f 837/358/497 834/354/494 838/359/498
f 834/354/494 833/357/493 838/359/498
f 833/357/493 830/354/490 838/359/498
f 838/359/498 830/354/490 839/358/499
f 830/354/490 827/341/487 839/358/499
f 827/341/487 825/343/485 839/358/499
f 825/343/485 822/345/484 839/358/499
f 839/358/499 822/345/484 840/360/500
f 822/345/484 819/348/482 840/360/500
f 819/348/482 816/351/480 840/360/500
f 816/351/480 813/348/478 840/360/500
f 813/348/478 810/345/476 840/360/500
f 810/345/476 837/358/497 840/360/500
f 837/358/497 838/359/498 840/360/500
f 840/360/500 838/359/498 839/358/499
f 841/361/383 843/362/501 842/363/502
f 843/362/501 844/364/434 842/363/502
f 844/364/434 845/365/503 842/363/502
f 842/363/502 845/365/503 846/366/504
f 845/365/503 847/367/431 846/366/504
f 847/367/431 848/368/505 846/366/504
f 848/368/505 849/369/429 846/366/504
f 849/369/429 850/370/428 846/366/504
f 850/370/428 851/371/506 846/366/504
f 846/366/504 851/371/506 852/372/507
f 851/371/506 853/373/508 852/372/507
f 853/373/508 854/374/423 852/372/507
f 854/374/423 855/375/381 852/372/507
f 855/375/381 856/376/380 852/372/507
f 856/376/380 857/377/377 852/372/507
f 852/372/507 857/377/377 858/378/375
f 857/377/377 859/379/509 858/378/375
f 858/378/375 860/380/382 852/372/507
f 860/380/382 861/381/510 852/372/507
f 852/372/507 861/381/510 846/366/504
f 846/366/504 861/381/510 842/363/502
f 842/363/502 861/381/510 841/361/383
f 861/381/510 860/380/382 841/361/383
f 862/361/403 863/363/511 864/362/512
f 864/362/512 863/363/511 865/364/445
f 865/364/445 863/363/511 866/365/513
f 863/363/511 867/366/514 866/365/513
f 866/365/513 867/366/514 868/367/441
f 868/367/441 867/366/514 869/368/515
f 869/368/515 867/366/514 870/369/516
f 870/369/516 867/366/514 871/370/517
f 871/370/517 867/366/514 872/371/437
f 867/366/514 873/372/518 872/371/437
f 872/371/437 873/372/518 874/373/436
f 874/373/436 873/372/518 875/374/435
f 875/374/435 873/372/518 876/375/420
f 876/375/420 873/372/518 877/376/519
f 877/376/519 873/372/518 878/377/520
f 873/372/518 879/378/401 878/377/520
f 878/377/520 879/378/401 880/379/521
f 879/378/401 873/372/518 881/380/402
f 881/380/402 873/372/518 882/381/522
f 873/372/518 867/366/514 882/381/522
f 867/366/514 863/363/511 882/381/522
f 863/363/511 862/361/403 882/381/522
f 882/381/522 862/361/403 881/380/402
f 883/382/492 885/383/495 884/384/523
f 885/383/495 886/385/524 884/384/523
f 886/385/524 887/386/525 884/384/523
f 884/384/523 887/386/525 888/385/526
f 887/386/525 889/387/527 888/385/526
f 888/385/526 889/387/527 890/388/489
f 890/388/489 889/387/527 891/389/488
f 891/389/488 889/387/527 892/390/528
f 889/387/527 893/391/529 892/390/528
f 892/390/528 893/391/529 894/392/112
f 883/382/492 884/384/523 895/383/530
f 884/384/523 888/385/526 895/383/530
f 895/383/530 888/385/526 890/388/489
f 885/383/495 896/388/496 886/385/524
f 886/385/524 896/388/496 897/387/531
f 896/388/496 898/389/473 897/387/531
f 898/389/473 899/390/27 897/387/531
f 897/387/531 899/390/27 900/391/532
f 899/390/27 901/392/29 900/391/532
f 900/391/532 901/392/29 902/393/533
f 901/392/29 903/394/31 902/393/533
f 903/394/31 904/395/32 902/393/533
f 902/393/533 904/395/32 905/396/534
f 904/395/32 906/397/535 905/396/534
f 906/397/535 907/398/311 905/396/534
f 905/396/534 907/398/311 908/399/536
f 908/399/536 907/398/311 909/396/537
f 907/398/311 910/397/340 909/396/537
f 909/396/537 910/397/340 911/395/115
f 910/397/340 912/400/538 911/395/115
f 886/385/524 897/387/531 887/386/525
f 897/387/531 913/401/539 887/386/525
f 887/386/525 913/401/539 889/387/527
f 913/401/539 893/391/529 889/387/527
f 913/401/539 897/387/531 900/391/532
f 906/397/535 904/395/32 914/400/310
f 909/396/537 911/395/115 915/393/540
f 911/395/115 916/394/114 915/393/540
f 916/394/114 894/392/112 915/393/540
f 894/392/112 893/391/529 915/393/540
f 915/393/540 893/391/529 917/402/541
f 893/391/529 913/401/539 917/402/541
f 913/401/539 900/391/532 917/402/541
f 900/391/532 902/393/533 917/402/541
f 902/393/533 905/396/534 917/402/541
f 905/396/534 908/399/536 917/402/541
f 908/399/536 909/396/537 917/402/541
f 917/402/541 909/396/537 915/393/540
